<?xml version="1.0" encoding="UTF-8" standalone="no"?>
<!-- Created with Inkscape (http://www.inkscape.org/) -->

<svg
   width="32"
   height="32"
   viewBox="0 0 8.4666664 8.4666677"
   version="1.1"
   id="svg1"
   xml:space="preserve"
   inkscape:version="1.4.2 (f4327f4, 2025-05-13)"
   sodipodi:docname="icone oficial azul - revisado.svg"
   inkscape:export-filename="ícones png\icone oficial azul 128 - revisado.png"
   inkscape:export-xdpi="384"
   inkscape:export-ydpi="384"
   xmlns:inkscape="http://www.inkscape.org/namespaces/inkscape"
   xmlns:sodipodi="http://sodipodi.sourceforge.net/DTD/sodipodi-0.dtd"
   xmlns="http://www.w3.org/2000/svg"
   xmlns:svg="http://www.w3.org/2000/svg"><sodipodi:namedview
     id="namedview1"
     pagecolor="#878787"
     bordercolor="#000000"
     borderopacity="0.25"
     inkscape:showpageshadow="2"
     inkscape:pageopacity="0.0"
     inkscape:pagecheckerboard="0"
     inkscape:deskcolor="#d1d1d1"
     inkscape:document-units="mm"
     inkscape:zoom="17.6875"
     inkscape:cx="16"
     inkscape:cy="20.522968"
     inkscape:window-width="1366"
     inkscape:window-height="697"
     inkscape:window-x="-8"
     inkscape:window-y="-8"
     inkscape:window-maximized="1"
     inkscape:current-layer="layer7"
     showguides="false" /><defs
     id="defs1"><rect
       x="334.15234"
       y="14.742015"
       width="518.42749"
       height="501.22849"
       id="rect12" /><inkscape:path-effect
       effect="bspline"
       id="path-effect43"
       is_visible="true"
       lpeversion="1.3"
       weight="33.333333"
       steps="2"
       helper_size="0"
       apply_no_weight="true"
       apply_with_weight="true"
       only_selected="false"
       uniform="false" /><rect
       x="300.35336"
       y="946.99646"
       width="1098.9399"
       height="226.14841"
       id="rect7" /><rect
       x="378.09186"
       y="374.55829"
       width="897.52649"
       height="650.1767"
       id="rect39" /><inkscape:path-effect
       effect="bspline"
       id="path-effect18"
       is_visible="true"
       lpeversion="1.3"
       weight="33.333333"
       steps="2"
       helper_size="0"
       apply_no_weight="true"
       apply_with_weight="true"
       only_selected="false"
       uniform="false" /><inkscape:path-effect
       effect="bspline"
       id="path-effect16"
       is_visible="true"
       lpeversion="1.3"
       weight="33.333333"
       steps="2"
       helper_size="0"
       apply_no_weight="true"
       apply_with_weight="true"
       only_selected="false"
       uniform="false" /><inkscape:path-effect
       effect="bspline"
       id="path-effect5"
       is_visible="true"
       lpeversion="1.3"
       weight="33.333333"
       steps="2"
       helper_size="0"
       apply_no_weight="true"
       apply_with_weight="true"
       only_selected="false"
       uniform="false" /><inkscape:path-effect
       effect="bspline"
       id="path-effect3"
       is_visible="true"
       lpeversion="1.3"
       weight="33.333333"
       steps="2"
       helper_size="0"
       apply_no_weight="true"
       apply_with_weight="true"
       only_selected="false"
       uniform="false" /><rect
       x="589.89899"
       y="367.67676"
       width="850.50507"
       height="256.56567"
       id="rect6" /><rect
       x="804.04041"
       y="345.45456"
       width="543.43433"
       height="474.74747"
       id="rect5" /><rect
       x="652.52527"
       y="406.06061"
       width="583.83838"
       height="355.55557"
       id="rect3" /><rect
       x="929.29291"
       y="531.31311"
       width="446.46466"
       height="232.32323"
       id="rect2" /><rect
       x="652.52527"
       y="406.06061"
       width="583.83838"
       height="355.55557"
       id="rect4" /><rect
       x="378.09186"
       y="374.55829"
       width="897.52649"
       height="650.1767"
       id="rect10" /><rect
       x="300.35336"
       y="946.99646"
       width="1098.9399"
       height="226.14841"
       id="rect11" /><rect
       x="378.09186"
       y="374.55829"
       width="897.52649"
       height="650.1767"
       id="rect15" /><rect
       x="300.35336"
       y="946.99646"
       width="1098.9399"
       height="226.14841"
       id="rect16" /><rect
       x="378.09186"
       y="374.55829"
       width="897.52649"
       height="650.1767"
       id="rect33" /><rect
       x="300.35336"
       y="946.99646"
       width="1098.9399"
       height="226.14841"
       id="rect34" /><rect
       x="378.09186"
       y="374.55829"
       width="897.52649"
       height="650.1767"
       id="rect36" /><rect
       x="300.35336"
       y="946.99646"
       width="1098.9399"
       height="226.14841"
       id="rect37" /><rect
       x="300.35336"
       y="946.99646"
       width="1098.9399"
       height="226.14841"
       id="rect64" /><rect
       x="378.09186"
       y="374.55829"
       width="897.52649"
       height="650.1767"
       id="rect41" /><rect
       x="334.15234"
       y="14.742015"
       width="518.42749"
       height="501.22849"
       id="rect13" /><rect
       x="334.15234"
       y="14.742015"
       width="518.42749"
       height="501.22849"
       id="rect17" /><rect
       x="334.15234"
       y="14.742015"
       width="518.42749"
       height="501.22849"
       id="rect18" /></defs><g
     inkscape:groupmode="layer"
     id="layer7"
     inkscape:label="hoc works faixa gradient meio"
     style="display:inline"
     transform="matrix(2.282017,0,0,2.282017,-77.682337,54.883808)"><path
       d="m 35.827271,-23.633447 c -0.06697,0.575177 -0.141835,0.768215 -0.378197,1.008527 -0.240314,0.240314 -0.421537,0.311228 -0.988827,0.374265 -0.224561,0.02758 -0.405779,0.05118 -0.401837,0.05514 0.0078,0.0078 0.189095,0.03151 0.405775,0.05516 0.50032,0.05911 0.716999,0.130012 0.921856,0.303348 0.25213,0.216675 0.354561,0.456987 0.429411,1.01247 l 0.06303,0.480624 0.05119,-0.433356 c 0.05911,-0.531838 0.133921,-0.732756 0.354562,-0.969128 0.228495,-0.244254 0.449109,-0.330926 0.996705,-0.393958 l 0.453055,-0.05119 -0.433351,-0.05119 c -0.539724,-0.06304 -0.736699,-0.133956 -0.969135,-0.354565 -0.24819,-0.228494 -0.338801,-0.464867 -0.401836,-1.004589 l -0.05119,-0.445169 z"
       id="path2"
       style="display:inline;fill:#0a5599;fill-opacity:1;fill-rule:nonzero;stroke-width:0.00393956" /></g></svg>
