<?xml version="1.0" encoding="UTF-8" standalone="no"?>
<!-- Created with Inkscape (http://www.inkscape.org/) -->

<svg
   width="210mm"
   height="297mm"
   viewBox="0 0 210 297"
   version="1.1"
   id="svg1"
   xml:space="preserve"
   inkscape:version="1.4.2 (f4327f4, 2025-05-13)"
   sodipodi:docname="elemento cobrinha.svg"
   xmlns:inkscape="http://www.inkscape.org/namespaces/inkscape"
   xmlns:sodipodi="http://sodipodi.sourceforge.net/DTD/sodipodi-0.dtd"
   xmlns="http://www.w3.org/2000/svg"
   xmlns:svg="http://www.w3.org/2000/svg"><sodipodi:namedview
     id="namedview1"
     pagecolor="#ffffff"
     bordercolor="#000000"
     borderopacity="0.25"
     inkscape:showpageshadow="2"
     inkscape:pageopacity="0.0"
     inkscape:pagecheckerboard="0"
     inkscape:deskcolor="#d1d1d1"
     inkscape:document-units="mm"
     inkscape:zoom="0.5"
     inkscape:cx="355"
     inkscape:cy="232"
     inkscape:window-width="1366"
     inkscape:window-height="697"
     inkscape:window-x="-8"
     inkscape:window-y="-8"
     inkscape:window-maximized="1"
     inkscape:current-layer="layer1" /><defs
     id="defs1"><rect
       x="334.15234"
       y="14.742015"
       width="518.42749"
       height="501.22849"
       id="rect12" /><inkscape:path-effect
       effect="bspline"
       id="path-effect43"
       is_visible="true"
       lpeversion="1.3"
       weight="33.333333"
       steps="2"
       helper_size="0"
       apply_no_weight="true"
       apply_with_weight="true"
       only_selected="false"
       uniform="false" /><rect
       x="300.35336"
       y="946.99646"
       width="1098.9399"
       height="226.14841"
       id="rect7" /><rect
       x="378.09186"
       y="374.55829"
       width="897.52649"
       height="650.1767"
       id="rect39" /><inkscape:path-effect
       effect="bspline"
       id="path-effect18"
       is_visible="true"
       lpeversion="1.3"
       weight="33.333333"
       steps="2"
       helper_size="0"
       apply_no_weight="true"
       apply_with_weight="true"
       only_selected="false"
       uniform="false" /><inkscape:path-effect
       effect="bspline"
       id="path-effect16"
       is_visible="true"
       lpeversion="1.3"
       weight="33.333333"
       steps="2"
       helper_size="0"
       apply_no_weight="true"
       apply_with_weight="true"
       only_selected="false"
       uniform="false" /><inkscape:path-effect
       effect="bspline"
       id="path-effect5"
       is_visible="true"
       lpeversion="1.3"
       weight="33.333333"
       steps="2"
       helper_size="0"
       apply_no_weight="true"
       apply_with_weight="true"
       only_selected="false"
       uniform="false" /><inkscape:path-effect
       effect="bspline"
       id="path-effect3"
       is_visible="true"
       lpeversion="1.3"
       weight="33.333333"
       steps="2"
       helper_size="0"
       apply_no_weight="true"
       apply_with_weight="true"
       only_selected="false"
       uniform="false" /><rect
       x="589.89899"
       y="367.67676"
       width="850.50507"
       height="256.56567"
       id="rect6" /><rect
       x="804.04041"
       y="345.45456"
       width="543.43433"
       height="474.74747"
       id="rect5" /><rect
       x="652.52527"
       y="406.06061"
       width="583.83838"
       height="355.55557"
       id="rect3" /><rect
       x="929.29291"
       y="531.31311"
       width="446.46466"
       height="232.32323"
       id="rect2" /><rect
       x="652.52527"
       y="406.06061"
       width="583.83838"
       height="355.55557"
       id="rect4" /><rect
       x="378.09186"
       y="374.55829"
       width="897.52649"
       height="650.1767"
       id="rect10" /><rect
       x="300.35336"
       y="946.99646"
       width="1098.9399"
       height="226.14841"
       id="rect11" /><rect
       x="378.09186"
       y="374.55829"
       width="897.52649"
       height="650.1767"
       id="rect15" /><rect
       x="300.35336"
       y="946.99646"
       width="1098.9399"
       height="226.14841"
       id="rect16" /><rect
       x="378.09186"
       y="374.55829"
       width="897.52649"
       height="650.1767"
       id="rect33" /><rect
       x="300.35336"
       y="946.99646"
       width="1098.9399"
       height="226.14841"
       id="rect34" /><rect
       x="378.09186"
       y="374.55829"
       width="897.52649"
       height="650.1767"
       id="rect36" /><rect
       x="300.35336"
       y="946.99646"
       width="1098.9399"
       height="226.14841"
       id="rect37" /><rect
       x="300.35336"
       y="946.99646"
       width="1098.9399"
       height="226.14841"
       id="rect64" /><rect
       x="378.09186"
       y="374.55829"
       width="897.52649"
       height="650.1767"
       id="rect41" /><rect
       x="334.15234"
       y="14.742015"
       width="518.42749"
       height="501.22849"
       id="rect13" /><rect
       x="334.15234"
       y="14.742015"
       width="518.42749"
       height="501.22849"
       id="rect17" /><rect
       x="334.15234"
       y="14.742015"
       width="518.42749"
       height="501.22849"
       id="rect18" /></defs><g
     inkscape:label="Camada 1"
     inkscape:groupmode="layer"
     id="layer1"><g
       id="g61"><path
         id="path55"
         style="display:inline;fill:#05001f;fill-opacity:1;stroke:#000000;stroke-width:0;stroke-linecap:round;stroke-linejoin:round"
         inkscape:label="path46"
         d="m 159.05418,47.063007 c 2.91656,-0.0046 4.77678,-0.298687 8.66664,-0.96934 3.66421,-1.056311 8.00529,-1.894559 11.26755,-5.381889 3.1501,-3.374825 5.57374,-5.851621 5.64202,-13.738771 0.0683,-7.88715 -0.0216,-15.123325 0,-23.0501999 -2.03836,0.06159 -2.04711,-0.123329 -7.08121,0.208289 -5.03411,0.331619 -8.93362,1.614584 -12.36463,5.0456885 -3.37455,3.4310524 -4.44354,6.1875594 -5.39967,14.3996374 l -0.7307,5.905066 -0.73122,-6.355684 c -0.89995,-7.705864 -2.1937,-11.080472 -5.73712,-14.3427949 -3.31853,-3.149721 -9.88996,-4.799891 -13.85975,-4.922423 -3.96978,-0.122533 -5.69667,-0.124291 -6.9152,-0.09772 -1.21854,0.02658 -4.36962,-0.0175 -5.6656,0.07059 -1.29597,0.08809 -10.26553,1.91224 -13.69653,5.3433445 -3.37455,3.4310524 -4.44355,6.1875594 -5.39967,14.3996374 l -0.7307,5.905066 -0.73123,-6.355684 c -0.89995,-7.705864 -2.19369,-11.080472 -5.737113,-14.3427949 -3.31853,-3.149721 -6.13065,-4.162865 -13.836369,-5.06274 0,0 -4.72341,-0.240098 -5.84977,-0.222938 -1.12635,0.01716 -4.09577,0.05996 -6.33346,0.33606 -8.09931,0.899991 -10.68648,1.91224 -14.11749,5.3433445 -3.374561,3.4310524 -4.443551,6.1875594 -5.399671,14.3996374 l -0.73122,5.905066 -0.73071,-6.355684 C 51.951417,15.419907 50.657667,12.045299 47.114247,8.7829761 43.795717,5.6332551 39.869142,4.4063847 34.131129,3.9233748 28.393117,3.4403649 29.042262,3.6819761 27.854962,3.6531261 26.667662,3.6242761 23.372979,3.6447555 20.648168,4.0649185 13.756029,4.9318356 11.06963,5.8779338 7.5063284,9.1106066 4.1317784,12.541657 1.60634,17.637744 1.2273867,23.397326 0.84843337,29.156909 1.0676409,38.704822 1.1612409,46.666281 c 3.91362,0.125963 4.34605,0.112431 8.7801003,-0.465657 4.4340498,-0.578089 8.8584408,-2.001516 12.1206908,-5.488846 3.15011,-3.374825 4.2178,-6.243579 5.06171,-13.836882 l 0.73122,-6.187219 0.89968,6.862113 c 1.06864,7.930908 2.5312,11.361866 6.1309,14.455449 2.924746,2.474793 6.018315,3.487093 13.161465,4.331001 2.614,0.285306 4.0834,0.327514 5.53506,0.298903 1.45166,-0.02861 4.38521,-0.05344 6.558261,-0.298903 7.81809,-0.899944 10.96788,-2.137132 14.23013,-5.624462 3.15011,-3.374825 4.21833,-6.243579 5.06223,-13.836882 l 0.73122,-6.187219 0.89969,6.862113 c 1.06865,7.930908 2.5312,11.361866 6.13089,14.455449 2.92475,2.474793 6.018309,3.487093 13.161472,4.331001 3.05871,0.261691 5.42344,0.316089 5.96243,0.316089 0.53899,0 6.13089,-0.316089 6.13089,-0.316089 7.81809,-0.899944 10.96788,-2.137132 14.23014,-5.624462 3.1501,-3.374825 3.55685,-5.91285 4.40076,-13.506153 l 0.73071,-6.187219 0.9002,6.862113 c 1.06864,7.930908 2.44378,9.550587 5.94994,13.111892 3.85548,2.86502 6.45955,3.957339 11.32095,5.357814 5.04234,0.671434 5.76379,0.699523 9.0722,0.712782 z"
         sodipodi:nodetypes="ccczczccccczzzcccccczcccccczzcczczcccccczccccccczcccccccc" /><path
         id="path60"
         style="display:inline;fill:#05001f;fill-opacity:1;stroke:#000000;stroke-width:0;stroke-linecap:round;stroke-linejoin:round"
         inkscape:label="path46"
         d="M 209.99648 46.959408 L 209.99648 19.493384 C 209.19088 14.900516 208.00173 12.554618 205.51872 9.8944865 C 202.25647 6.4071565 197.83206 4.9835048 193.39801 4.4054159 C 188.96396 3.8273279 188.53129 3.8138482 184.61767 3.9398112 C 184.52403 11.90127 184.30487 21.449092 184.68382 27.208675 C 185.06277 32.968257 187.58847 38.064608 190.96302 41.495658 C 194.52632 44.728331 197.21271 45.674428 204.10485 46.541345 C 206.11747 46.851711 208.44091 46.943998 209.99648 46.959408 z " /></g><path
       id="path61"
       style="display:inline;fill:#05001f;fill-opacity:1;stroke:#000000;stroke-width:0;stroke-linecap:round;stroke-linejoin:round"
       inkscape:label="path46"
       d="M 131.15064,149.88233 V 122.4163 c -0.8056,-4.59286 -1.99475,-6.93876 -4.47776,-9.59889 -3.26225,-3.48733 -7.68666,-4.91099 -12.12071,-5.48907 -4.43405,-0.57809 -4.86672,-0.59157 -8.78034,-0.46561 -0.0936,7.96146 -0.3128,17.50928 0.0661,23.26886 0.37895,5.75959 2.90465,10.85594 6.2792,14.28699 3.5633,3.23267 6.24969,4.17877 13.14183,5.04568 2.01262,0.31037 4.33606,0.40266 5.89163,0.41807 z" /></g></svg>
