<?xml version="1.0" encoding="UTF-8" standalone="no"?>
<!-- Created with Inkscape (http://www.inkscape.org/) -->

<svg
   width="210mm"
   height="297mm"
   viewBox="0 0 210 297"
   version="1.1"
   id="svg1"
   xml:space="preserve"
   inkscape:version="1.4.2 (f4327f4, 2025-05-13)"
   sodipodi:docname="elemento cobrinha.svg"
   xmlns:inkscape="http://www.inkscape.org/namespaces/inkscape"
   xmlns:sodipodi="http://sodipodi.sourceforge.net/DTD/sodipodi-0.dtd"
   xmlns="http://www.w3.org/2000/svg"
   xmlns:svg="http://www.w3.org/2000/svg"><sodipodi:namedview
     id="namedview1"
     pagecolor="#ffffff"
     bordercolor="#000000"
     borderopacity="0.25"
     inkscape:showpageshadow="2"
     inkscape:pageopacity="0.0"
     inkscape:pagecheckerboard="0"
     inkscape:deskcolor="#d1d1d1"
     inkscape:document-units="mm"
     inkscape:zoom="0.50422278"
     inkscape:cx="397.64169"
     inkscape:cy="561.25984"
     inkscape:window-width="1366"
     inkscape:window-height="697"
     inkscape:window-x="-8"
     inkscape:window-y="-8"
     inkscape:window-maximized="1"
     inkscape:current-layer="layer1"
     showguides="true" /><defs
     id="defs1"><rect
       x="334.15234"
       y="14.742015"
       width="518.42749"
       height="501.22849"
       id="rect12" /><inkscape:path-effect
       effect="bspline"
       id="path-effect43"
       is_visible="true"
       lpeversion="1.3"
       weight="33.333333"
       steps="2"
       helper_size="0"
       apply_no_weight="true"
       apply_with_weight="true"
       only_selected="false"
       uniform="false" /><rect
       x="300.35336"
       y="946.99646"
       width="1098.9399"
       height="226.14841"
       id="rect7" /><rect
       x="378.09186"
       y="374.55829"
       width="897.52649"
       height="650.1767"
       id="rect39" /><inkscape:path-effect
       effect="bspline"
       id="path-effect18"
       is_visible="true"
       lpeversion="1.3"
       weight="33.333333"
       steps="2"
       helper_size="0"
       apply_no_weight="true"
       apply_with_weight="true"
       only_selected="false"
       uniform="false" /><inkscape:path-effect
       effect="bspline"
       id="path-effect16"
       is_visible="true"
       lpeversion="1.3"
       weight="33.333333"
       steps="2"
       helper_size="0"
       apply_no_weight="true"
       apply_with_weight="true"
       only_selected="false"
       uniform="false" /><inkscape:path-effect
       effect="bspline"
       id="path-effect5"
       is_visible="true"
       lpeversion="1.3"
       weight="33.333333"
       steps="2"
       helper_size="0"
       apply_no_weight="true"
       apply_with_weight="true"
       only_selected="false"
       uniform="false" /><inkscape:path-effect
       effect="bspline"
       id="path-effect3"
       is_visible="true"
       lpeversion="1.3"
       weight="33.333333"
       steps="2"
       helper_size="0"
       apply_no_weight="true"
       apply_with_weight="true"
       only_selected="false"
       uniform="false" /><rect
       x="589.89899"
       y="367.67676"
       width="850.50507"
       height="256.56567"
       id="rect6" /><rect
       x="804.04041"
       y="345.45456"
       width="543.43433"
       height="474.74747"
       id="rect5" /><rect
       x="652.52527"
       y="406.06061"
       width="583.83838"
       height="355.55557"
       id="rect3" /><rect
       x="929.29291"
       y="531.31311"
       width="446.46466"
       height="232.32323"
       id="rect2" /><rect
       x="652.52527"
       y="406.06061"
       width="583.83838"
       height="355.55557"
       id="rect4" /><rect
       x="378.09186"
       y="374.55829"
       width="897.52649"
       height="650.1767"
       id="rect10" /><rect
       x="300.35336"
       y="946.99646"
       width="1098.9399"
       height="226.14841"
       id="rect11" /><rect
       x="378.09186"
       y="374.55829"
       width="897.52649"
       height="650.1767"
       id="rect15" /><rect
       x="300.35336"
       y="946.99646"
       width="1098.9399"
       height="226.14841"
       id="rect16" /><rect
       x="378.09186"
       y="374.55829"
       width="897.52649"
       height="650.1767"
       id="rect33" /><rect
       x="300.35336"
       y="946.99646"
       width="1098.9399"
       height="226.14841"
       id="rect34" /><rect
       x="378.09186"
       y="374.55829"
       width="897.52649"
       height="650.1767"
       id="rect36" /><rect
       x="300.35336"
       y="946.99646"
       width="1098.9399"
       height="226.14841"
       id="rect37" /><rect
       x="300.35336"
       y="946.99646"
       width="1098.9399"
       height="226.14841"
       id="rect64" /><rect
       x="378.09186"
       y="374.55829"
       width="897.52649"
       height="650.1767"
       id="rect41" /><rect
       x="334.15234"
       y="14.742015"
       width="518.42749"
       height="501.22849"
       id="rect13" /><rect
       x="334.15234"
       y="14.742015"
       width="518.42749"
       height="501.22849"
       id="rect17" /><rect
       x="334.15234"
       y="14.742015"
       width="518.42749"
       height="501.22849"
       id="rect18" /></defs><g
     inkscape:label="Camada 1"
     inkscape:groupmode="layer"
     id="layer1"><path
       id="path81"
       style="display:inline;fill:#05001f;fill-opacity:1;stroke:#000000;stroke-width:0;stroke-linecap:round;stroke-linejoin:round"
       inkscape:label="path46"
       d="m 102.70226,0.377755 -46.55375,0.16123 c -1.143571,2.33057 -1.762264,5.30054 -2.339909,10.261906 L 53.07738,16.705957 52.346675,10.350273 C 51.829815,5.924586 51.183062,2.927252 50.054825,0.559656 L 3.7026164,0.720369 C 2.0667504,3.583756 0.96326727,6.969123 0.72295327,10.621574 0.34399996,16.381157 0.56320747,25.929496 0.65680747,33.890955 4.5704275,34.016918 5.002583,34.002921 9.4366333,33.424833 13.870683,32.846744 18.29509,31.423609 21.55734,27.936279 c 3.15011,-3.374825 4.217797,-6.243578 5.061707,-13.836881 l 0.731221,-6.187219 0.899687,6.862113 c 1.06864,7.930908 2.531192,11.361865 6.130892,14.455448 2.924746,2.474793 6.01832,3.487094 13.16147,4.331002 2.614,0.285306 4.083403,0.327301 5.535063,0.29869 1.45166,-0.02861 4.385205,-0.05323 6.558256,-0.29869 7.81809,-0.899944 10.967889,-2.137133 14.230139,-5.624463 3.15011,-3.374825 4.218323,-6.243578 5.062223,-13.836881 l 0.731222,-6.187219 0.899687,6.862113 c 1.06865,7.930908 2.531202,11.361865 6.130892,14.455448 2.92475,2.474793 6.018307,3.487094 13.161468,4.331002 3.058713,0.261691 5.423443,0.31626 5.962433,0.31626 0.53899,0 6.13089,-0.31626 6.13089,-0.31626 7.81809,-0.899944 10.96788,-2.137133 14.23014,-5.624463 3.1501,-3.374825 3.55685,-5.912849 4.40076,-13.506152 l 0.73071,-6.187219 0.9002,6.862113 c 1.06864,7.930908 2.44387,9.550556 5.95003,13.111861 3.85548,2.86502 6.45935,3.957338 11.32075,5.357813 5.04234,0.671434 5.76391,0.699359 9.07232,0.712618 2.91656,-0.0046 4.77679,-0.298797 8.66665,-0.96945 3.66421,-1.056311 8.00527,-1.894254 11.26753,-5.381584 3.1501,-3.374825 5.57375,-5.851546 5.64203,-13.738696 0.0419,-4.842374 0.0242,-9.439353 0.009,-14.101465 l -22.32836,0.077 c -1.26426,2.38675 -1.91817,5.403268 -2.52646,10.627775 l -0.7307,5.905066 -0.73122,-6.355684 c -0.54375,-4.655831 -1.2311,-7.730813 -2.47169,-10.154936 l -46.37081,0.160714 c -1.2024,2.358341 -1.83852,5.352801 -2.43138,10.44484 l -0.7307,5.905066 -0.73122,-6.355684 C 104.55195,5.810272 103.88509,2.7737 102.70195,0.377757 Z" /><path
       id="path60"
       style="display:inline;fill:#05001f;fill-opacity:1;stroke:#000000;stroke-width:0;stroke-linecap:round;stroke-linejoin:round"
       inkscape:label="path46"
       d="M 207.3367 0.16019694 L 183.996 0.21032308 C 183.9391 5.5621259 183.93767 10.76577 184.17894 14.433228 C 184.55789 20.19281 187.08359 25.289161 190.45814 28.720211 C 194.02144 31.952884 196.70784 32.898981 203.59998 33.765898 C 205.6126 34.076264 207.93604 34.16855 209.49161 34.18396 L 209.49161 6.7179362 C 208.99256 3.8727944 208.34651 1.889664 207.3367 0.16019694 z " /><g
       id="g62"
       transform="translate(-0.50463253,32.076671)"><path
         id="path61"
         style="display:inline;fill:#05001f;fill-opacity:1;stroke:#000000;stroke-width:0;stroke-linecap:round;stroke-linejoin:round"
         inkscape:label="path46"
         d="m 159.05418,47.063007 c 2.91656,-0.0046 4.77678,-0.298687 8.66664,-0.96934 3.66421,-1.056311 8.00529,-1.894559 11.26755,-5.381889 3.1501,-3.374825 5.57374,-5.851621 5.64202,-13.738771 0.0683,-7.88715 -0.0216,-15.123325 0,-23.0501999 -2.03836,0.06159 -2.04711,-0.123329 -7.08121,0.208289 -5.03411,0.331619 -8.93362,1.614584 -12.36463,5.0456885 -3.37455,3.4310524 -4.44354,6.1875594 -5.39967,14.3996374 l -0.7307,5.905066 -0.73122,-6.355684 c -0.89995,-7.705864 -2.1937,-11.080472 -5.73712,-14.3427949 -3.31853,-3.149721 -9.88996,-4.799891 -13.85975,-4.922423 -3.96978,-0.122533 -5.69667,-0.124291 -6.9152,-0.09772 -1.21854,0.02658 -4.36962,-0.0175 -5.6656,0.07059 -1.29597,0.08809 -10.26553,1.91224 -13.69653,5.3433445 -3.37455,3.4310524 -4.44355,6.1875594 -5.39967,14.3996374 l -0.7307,5.905066 -0.73123,-6.355684 c -0.89995,-7.705864 -2.19369,-11.080472 -5.737113,-14.3427949 -3.31853,-3.149721 -6.13065,-4.162865 -13.836369,-5.06274 0,0 -4.72341,-0.240098 -5.84977,-0.222938 -1.12635,0.01716 -4.09577,0.05996 -6.33346,0.33606 -8.09931,0.899991 -10.68648,1.91224 -14.11749,5.3433445 -3.374561,3.4310524 -4.443551,6.1875594 -5.399671,14.3996374 l -0.73122,5.905066 -0.73071,-6.355684 C 51.951417,15.419907 50.657667,12.045299 47.114247,8.7829761 43.795717,5.6332551 39.869142,4.4063847 34.131129,3.9233748 28.393117,3.4403649 29.042262,3.6819761 27.854962,3.6531261 26.667662,3.6242761 23.372979,3.6447555 20.648168,4.0649185 13.756029,4.9318356 11.06963,5.8779338 7.5063284,9.1106066 4.1317784,12.541657 1.60634,17.637744 1.2273867,23.397326 0.84843337,29.156909 1.0676409,38.704822 1.1612409,46.666281 c 3.91362,0.125963 4.34605,0.112431 8.7801003,-0.465657 4.4340498,-0.578089 8.8584408,-2.001516 12.1206908,-5.488846 3.15011,-3.374825 4.2178,-6.243579 5.06171,-13.836882 l 0.73122,-6.187219 0.89968,6.862113 c 1.06864,7.930908 2.5312,11.361866 6.1309,14.455449 2.924746,2.474793 6.018315,3.487093 13.161465,4.331001 2.614,0.285306 4.0834,0.327514 5.53506,0.298903 1.45166,-0.02861 4.38521,-0.05344 6.558261,-0.298903 7.81809,-0.899944 10.96788,-2.137132 14.23013,-5.624462 3.15011,-3.374825 4.21833,-6.243579 5.06223,-13.836882 l 0.73122,-6.187219 0.89969,6.862113 c 1.06865,7.930908 2.5312,11.361866 6.13089,14.455449 2.92475,2.474793 6.018309,3.487093 13.161472,4.331001 3.05871,0.261691 5.42344,0.316089 5.96243,0.316089 0.53899,0 6.13089,-0.316089 6.13089,-0.316089 7.81809,-0.899944 10.96788,-2.137132 14.23014,-5.624462 3.1501,-3.374825 3.55685,-5.91285 4.40076,-13.506153 l 0.73071,-6.187219 0.9002,6.862113 c 1.06864,7.930908 2.44378,9.550587 5.94994,13.111892 3.85548,2.86502 6.45955,3.957339 11.32095,5.357814 5.04234,0.671434 5.76379,0.699523 9.0722,0.712782 z"
         sodipodi:nodetypes="ccczczccccczzzcccccczcccccczzcczczcccccczccccccczcccccccc" /><path
         id="path62"
         style="display:inline;fill:#05001f;fill-opacity:1;stroke:#000000;stroke-width:0;stroke-linecap:round;stroke-linejoin:round"
         inkscape:label="path46"
         d="M 209.99648,46.959408 V 19.493384 c -0.8056,-4.592868 -1.99475,-6.938766 -4.47776,-9.5988975 -3.26225,-3.48733 -7.68666,-4.9109817 -12.12071,-5.4890706 -4.43405,-0.578088 -4.86672,-0.5915677 -8.78034,-0.4656047 -0.0936,7.9614588 -0.3128,17.5092808 0.0661,23.2688638 0.37895,5.759582 2.90465,10.855933 6.2792,14.286983 3.5633,3.232673 6.24969,4.17877 13.14183,5.045687 2.01262,0.310366 4.33606,0.402653 5.89163,0.418063 z" /></g><g
       id="g64"
       transform="translate(-0.50463253,76.928915)"><path
         id="path63"
         style="display:inline;fill:#05001f;fill-opacity:1;stroke:#000000;stroke-width:0;stroke-linecap:round;stroke-linejoin:round"
         inkscape:label="path46"
         d="m 159.05418,47.063007 c 2.91656,-0.0046 4.77678,-0.298687 8.66664,-0.96934 3.66421,-1.056311 8.00529,-1.894559 11.26755,-5.381889 3.1501,-3.374825 5.57374,-5.851621 5.64202,-13.738771 0.0683,-7.88715 -0.0216,-15.123325 0,-23.0501999 -2.03836,0.06159 -2.04711,-0.123329 -7.08121,0.208289 -5.03411,0.331619 -8.93362,1.614584 -12.36463,5.0456885 -3.37455,3.4310524 -4.44354,6.1875594 -5.39967,14.3996374 l -0.7307,5.905066 -0.73122,-6.355684 c -0.89995,-7.705864 -2.1937,-11.080472 -5.73712,-14.3427949 -3.31853,-3.149721 -9.88996,-4.799891 -13.85975,-4.922423 -3.96978,-0.122533 -5.69667,-0.124291 -6.9152,-0.09772 -1.21854,0.02658 -4.36962,-0.0175 -5.6656,0.07059 -1.29597,0.08809 -10.26553,1.91224 -13.69653,5.3433445 -3.37455,3.4310524 -4.44355,6.1875594 -5.39967,14.3996374 l -0.7307,5.905066 -0.73123,-6.355684 c -0.89995,-7.705864 -2.19369,-11.080472 -5.737113,-14.3427949 -3.31853,-3.149721 -6.13065,-4.162865 -13.836369,-5.06274 0,0 -4.72341,-0.240098 -5.84977,-0.222938 -1.12635,0.01716 -4.09577,0.05996 -6.33346,0.33606 -8.09931,0.899991 -10.68648,1.91224 -14.11749,5.3433445 -3.374561,3.4310524 -4.443551,6.1875594 -5.399671,14.3996374 l -0.73122,5.905066 -0.73071,-6.355684 C 51.951417,15.419907 50.657667,12.045299 47.114247,8.7829761 43.795717,5.6332551 39.869142,4.4063847 34.131129,3.9233748 28.393117,3.4403649 29.042262,3.6819761 27.854962,3.6531261 26.667662,3.6242761 23.372979,3.6447555 20.648168,4.0649185 13.756029,4.9318356 11.06963,5.8779338 7.5063284,9.1106066 4.1317784,12.541657 1.60634,17.637744 1.2273867,23.397326 0.84843337,29.156909 1.0676409,38.704822 1.1612409,46.666281 c 3.91362,0.125963 4.34605,0.112431 8.7801003,-0.465657 4.4340498,-0.578089 8.8584408,-2.001516 12.1206908,-5.488846 3.15011,-3.374825 4.2178,-6.243579 5.06171,-13.836882 l 0.73122,-6.187219 0.89968,6.862113 c 1.06864,7.930908 2.5312,11.361866 6.1309,14.455449 2.924746,2.474793 6.018315,3.487093 13.161465,4.331001 2.614,0.285306 4.0834,0.327514 5.53506,0.298903 1.45166,-0.02861 4.38521,-0.05344 6.558261,-0.298903 7.81809,-0.899944 10.96788,-2.137132 14.23013,-5.624462 3.15011,-3.374825 4.21833,-6.243579 5.06223,-13.836882 l 0.73122,-6.187219 0.89969,6.862113 c 1.06865,7.930908 2.5312,11.361866 6.13089,14.455449 2.92475,2.474793 6.018309,3.487093 13.161472,4.331001 3.05871,0.261691 5.42344,0.316089 5.96243,0.316089 0.53899,0 6.13089,-0.316089 6.13089,-0.316089 7.81809,-0.899944 10.96788,-2.137132 14.23014,-5.624462 3.1501,-3.374825 3.55685,-5.91285 4.40076,-13.506153 l 0.73071,-6.187219 0.9002,6.862113 c 1.06864,7.930908 2.44378,9.550587 5.94994,13.111892 3.85548,2.86502 6.45955,3.957339 11.32095,5.357814 5.04234,0.671434 5.76379,0.699523 9.0722,0.712782 z"
         sodipodi:nodetypes="ccczczccccczzzcccccczcccccczzcczczcccccczccccccczcccccccc" /><path
         id="path64"
         style="display:inline;fill:#05001f;fill-opacity:1;stroke:#000000;stroke-width:0;stroke-linecap:round;stroke-linejoin:round"
         inkscape:label="path46"
         d="M 209.99648,46.959408 V 19.493384 c -0.8056,-4.592868 -1.99475,-6.938766 -4.47776,-9.5988975 -3.26225,-3.48733 -7.68666,-4.9109817 -12.12071,-5.4890706 -4.43405,-0.578088 -4.86672,-0.5915677 -8.78034,-0.4656047 -0.0936,7.9614588 -0.3128,17.5092808 0.0661,23.2688638 0.37895,5.759582 2.90465,10.855933 6.2792,14.286983 3.5633,3.232673 6.24969,4.17877 13.14183,5.045687 2.01262,0.310366 4.33606,0.402653 5.89163,0.418063 z" /></g><g
       id="g66"
       transform="translate(-0.50463253,121.78116)"><path
         id="path65"
         style="display:inline;fill:#05001f;fill-opacity:1;stroke:#000000;stroke-width:0;stroke-linecap:round;stroke-linejoin:round"
         inkscape:label="path46"
         d="m 159.05418,47.063007 c 2.91656,-0.0046 4.77678,-0.298687 8.66664,-0.96934 3.66421,-1.056311 8.00529,-1.894559 11.26755,-5.381889 3.1501,-3.374825 5.57374,-5.851621 5.64202,-13.738771 0.0683,-7.88715 -0.0216,-15.123325 0,-23.0501999 -2.03836,0.06159 -2.04711,-0.123329 -7.08121,0.208289 -5.03411,0.331619 -8.93362,1.614584 -12.36463,5.0456885 -3.37455,3.4310524 -4.44354,6.1875594 -5.39967,14.3996374 l -0.7307,5.905066 -0.73122,-6.355684 c -0.89995,-7.705864 -2.1937,-11.080472 -5.73712,-14.3427949 -3.31853,-3.149721 -9.88996,-4.799891 -13.85975,-4.922423 -3.96978,-0.122533 -5.69667,-0.124291 -6.9152,-0.09772 -1.21854,0.02658 -4.36962,-0.0175 -5.6656,0.07059 -1.29597,0.08809 -10.26553,1.91224 -13.69653,5.3433445 -3.37455,3.4310524 -4.44355,6.1875594 -5.39967,14.3996374 l -0.7307,5.905066 -0.73123,-6.355684 c -0.89995,-7.705864 -2.19369,-11.080472 -5.737113,-14.3427949 -3.31853,-3.149721 -6.13065,-4.162865 -13.836369,-5.06274 0,0 -4.72341,-0.240098 -5.84977,-0.222938 -1.12635,0.01716 -4.09577,0.05996 -6.33346,0.33606 -8.09931,0.899991 -10.68648,1.91224 -14.11749,5.3433445 -3.374561,3.4310524 -4.443551,6.1875594 -5.399671,14.3996374 l -0.73122,5.905066 -0.73071,-6.355684 C 51.951417,15.419907 50.657667,12.045299 47.114247,8.7829761 43.795717,5.6332551 39.869142,4.4063847 34.131129,3.9233748 28.393117,3.4403649 29.042262,3.6819761 27.854962,3.6531261 26.667662,3.6242761 23.372979,3.6447555 20.648168,4.0649185 13.756029,4.9318356 11.06963,5.8779338 7.5063284,9.1106066 4.1317784,12.541657 1.60634,17.637744 1.2273867,23.397326 0.84843337,29.156909 1.0676409,38.704822 1.1612409,46.666281 c 3.91362,0.125963 4.34605,0.112431 8.7801003,-0.465657 4.4340498,-0.578089 8.8584408,-2.001516 12.1206908,-5.488846 3.15011,-3.374825 4.2178,-6.243579 5.06171,-13.836882 l 0.73122,-6.187219 0.89968,6.862113 c 1.06864,7.930908 2.5312,11.361866 6.1309,14.455449 2.924746,2.474793 6.018315,3.487093 13.161465,4.331001 2.614,0.285306 4.0834,0.327514 5.53506,0.298903 1.45166,-0.02861 4.38521,-0.05344 6.558261,-0.298903 7.81809,-0.899944 10.96788,-2.137132 14.23013,-5.624462 3.15011,-3.374825 4.21833,-6.243579 5.06223,-13.836882 l 0.73122,-6.187219 0.89969,6.862113 c 1.06865,7.930908 2.5312,11.361866 6.13089,14.455449 2.92475,2.474793 6.018309,3.487093 13.161472,4.331001 3.05871,0.261691 5.42344,0.316089 5.96243,0.316089 0.53899,0 6.13089,-0.316089 6.13089,-0.316089 7.81809,-0.899944 10.96788,-2.137132 14.23014,-5.624462 3.1501,-3.374825 3.55685,-5.91285 4.40076,-13.506153 l 0.73071,-6.187219 0.9002,6.862113 c 1.06864,7.930908 2.44378,9.550587 5.94994,13.111892 3.85548,2.86502 6.45955,3.957339 11.32095,5.357814 5.04234,0.671434 5.76379,0.699523 9.0722,0.712782 z"
         sodipodi:nodetypes="ccczczccccczzzcccccczcccccczzcczczcccccczccccccczcccccccc" /><path
         id="path66"
         style="display:inline;fill:#05001f;fill-opacity:1;stroke:#000000;stroke-width:0;stroke-linecap:round;stroke-linejoin:round"
         inkscape:label="path46"
         d="M 209.99648,46.959408 V 19.493384 c -0.8056,-4.592868 -1.99475,-6.938766 -4.47776,-9.5988975 -3.26225,-3.48733 -7.68666,-4.9109817 -12.12071,-5.4890706 -4.43405,-0.578088 -4.86672,-0.5915677 -8.78034,-0.4656047 -0.0936,7.9614588 -0.3128,17.5092808 0.0661,23.2688638 0.37895,5.759582 2.90465,10.855933 6.2792,14.286983 3.5633,3.232673 6.24969,4.17877 13.14183,5.045687 2.01262,0.310366 4.33606,0.402653 5.89163,0.418063 z" /></g><g
       id="g68"
       transform="translate(-0.50463253,166.63341)"><path
         id="path67"
         style="display:inline;fill:#05001f;fill-opacity:1;stroke:#000000;stroke-width:0;stroke-linecap:round;stroke-linejoin:round"
         inkscape:label="path46"
         d="m 159.05418,47.063007 c 2.91656,-0.0046 4.77678,-0.298687 8.66664,-0.96934 3.66421,-1.056311 8.00529,-1.894559 11.26755,-5.381889 3.1501,-3.374825 5.57374,-5.851621 5.64202,-13.738771 0.0683,-7.88715 -0.0216,-15.123325 0,-23.0501999 -2.03836,0.06159 -2.04711,-0.123329 -7.08121,0.208289 -5.03411,0.331619 -8.93362,1.614584 -12.36463,5.0456885 -3.37455,3.4310524 -4.44354,6.1875594 -5.39967,14.3996374 l -0.7307,5.905066 -0.73122,-6.355684 c -0.89995,-7.705864 -2.1937,-11.080472 -5.73712,-14.3427949 -3.31853,-3.149721 -9.88996,-4.799891 -13.85975,-4.922423 -3.96978,-0.122533 -5.69667,-0.124291 -6.9152,-0.09772 -1.21854,0.02658 -4.36962,-0.0175 -5.6656,0.07059 -1.29597,0.08809 -10.26553,1.91224 -13.69653,5.3433445 -3.37455,3.4310524 -4.44355,6.1875594 -5.39967,14.3996374 l -0.7307,5.905066 -0.73123,-6.355684 c -0.89995,-7.705864 -2.19369,-11.080472 -5.737113,-14.3427949 -3.31853,-3.149721 -6.13065,-4.162865 -13.836369,-5.06274 0,0 -4.72341,-0.240098 -5.84977,-0.222938 -1.12635,0.01716 -4.09577,0.05996 -6.33346,0.33606 -8.09931,0.899991 -10.68648,1.91224 -14.11749,5.3433445 -3.374561,3.4310524 -4.443551,6.1875594 -5.399671,14.3996374 l -0.73122,5.905066 -0.73071,-6.355684 C 51.951417,15.419907 50.657667,12.045299 47.114247,8.7829761 43.795717,5.6332551 39.869142,4.4063847 34.131129,3.9233748 28.393117,3.4403649 29.042262,3.6819761 27.854962,3.6531261 26.667662,3.6242761 23.372979,3.6447555 20.648168,4.0649185 13.756029,4.9318356 11.06963,5.8779338 7.5063284,9.1106066 4.1317784,12.541657 1.60634,17.637744 1.2273867,23.397326 0.84843337,29.156909 1.0676409,38.704822 1.1612409,46.666281 c 3.91362,0.125963 4.34605,0.112431 8.7801003,-0.465657 4.4340498,-0.578089 8.8584408,-2.001516 12.1206908,-5.488846 3.15011,-3.374825 4.2178,-6.243579 5.06171,-13.836882 l 0.73122,-6.187219 0.89968,6.862113 c 1.06864,7.930908 2.5312,11.361866 6.1309,14.455449 2.924746,2.474793 6.018315,3.487093 13.161465,4.331001 2.614,0.285306 4.0834,0.327514 5.53506,0.298903 1.45166,-0.02861 4.38521,-0.05344 6.558261,-0.298903 7.81809,-0.899944 10.96788,-2.137132 14.23013,-5.624462 3.15011,-3.374825 4.21833,-6.243579 5.06223,-13.836882 l 0.73122,-6.187219 0.89969,6.862113 c 1.06865,7.930908 2.5312,11.361866 6.13089,14.455449 2.92475,2.474793 6.018309,3.487093 13.161472,4.331001 3.05871,0.261691 5.42344,0.316089 5.96243,0.316089 0.53899,0 6.13089,-0.316089 6.13089,-0.316089 7.81809,-0.899944 10.96788,-2.137132 14.23014,-5.624462 3.1501,-3.374825 3.55685,-5.91285 4.40076,-13.506153 l 0.73071,-6.187219 0.9002,6.862113 c 1.06864,7.930908 2.44378,9.550587 5.94994,13.111892 3.85548,2.86502 6.45955,3.957339 11.32095,5.357814 5.04234,0.671434 5.76379,0.699523 9.0722,0.712782 z"
         sodipodi:nodetypes="ccczczccccczzzcccccczcccccczzcczczcccccczccccccczcccccccc" /><path
         id="path68"
         style="display:inline;fill:#05001f;fill-opacity:1;stroke:#000000;stroke-width:0;stroke-linecap:round;stroke-linejoin:round"
         inkscape:label="path46"
         d="M 209.99648,46.959408 V 19.493384 c -0.8056,-4.592868 -1.99475,-6.938766 -4.47776,-9.5988975 -3.26225,-3.48733 -7.68666,-4.9109817 -12.12071,-5.4890706 -4.43405,-0.578088 -4.86672,-0.5915677 -8.78034,-0.4656047 -0.0936,7.9614588 -0.3128,17.5092808 0.0661,23.2688638 0.37895,5.759582 2.90465,10.855933 6.2792,14.286983 3.5633,3.232673 6.24969,4.17877 13.14183,5.045687 2.01262,0.310366 4.33606,0.402653 5.89163,0.418063 z" /></g><g
       id="g70"
       transform="translate(-0.50463253,211.48565)"><path
         id="path69"
         style="display:inline;fill:#05001f;fill-opacity:1;stroke:#000000;stroke-width:0;stroke-linecap:round;stroke-linejoin:round"
         inkscape:label="path46"
         d="m 159.05418,47.063007 c 2.91656,-0.0046 4.77678,-0.298687 8.66664,-0.96934 3.66421,-1.056311 8.00529,-1.894559 11.26755,-5.381889 3.1501,-3.374825 5.57374,-5.851621 5.64202,-13.738771 0.0683,-7.88715 -0.0216,-15.123325 0,-23.0501999 -2.03836,0.06159 -2.04711,-0.123329 -7.08121,0.208289 -5.03411,0.331619 -8.93362,1.614584 -12.36463,5.0456885 -3.37455,3.4310524 -4.44354,6.1875594 -5.39967,14.3996374 l -0.7307,5.905066 -0.73122,-6.355684 c -0.89995,-7.705864 -2.1937,-11.080472 -5.73712,-14.3427949 -3.31853,-3.149721 -9.88996,-4.799891 -13.85975,-4.922423 -3.96978,-0.122533 -5.69667,-0.124291 -6.9152,-0.09772 -1.21854,0.02658 -4.36962,-0.0175 -5.6656,0.07059 -1.29597,0.08809 -10.26553,1.91224 -13.69653,5.3433445 -3.37455,3.4310524 -4.44355,6.1875594 -5.39967,14.3996374 l -0.7307,5.905066 -0.73123,-6.355684 c -0.89995,-7.705864 -2.19369,-11.080472 -5.737113,-14.3427949 -3.31853,-3.149721 -6.13065,-4.162865 -13.836369,-5.06274 0,0 -4.72341,-0.240098 -5.84977,-0.222938 -1.12635,0.01716 -4.09577,0.05996 -6.33346,0.33606 -8.09931,0.899991 -10.68648,1.91224 -14.11749,5.3433445 -3.374561,3.4310524 -4.443551,6.1875594 -5.399671,14.3996374 l -0.73122,5.905066 -0.73071,-6.355684 C 51.951417,15.419907 50.657667,12.045299 47.114247,8.7829761 43.795717,5.6332551 39.869142,4.4063847 34.131129,3.9233748 28.393117,3.4403649 29.042262,3.6819761 27.854962,3.6531261 26.667662,3.6242761 23.372979,3.6447555 20.648168,4.0649185 13.756029,4.9318356 11.06963,5.8779338 7.5063284,9.1106066 4.1317784,12.541657 1.60634,17.637744 1.2273867,23.397326 0.84843337,29.156909 1.0676409,38.704822 1.1612409,46.666281 c 3.91362,0.125963 4.34605,0.112431 8.7801003,-0.465657 4.4340498,-0.578089 8.8584408,-2.001516 12.1206908,-5.488846 3.15011,-3.374825 4.2178,-6.243579 5.06171,-13.836882 l 0.73122,-6.187219 0.89968,6.862113 c 1.06864,7.930908 2.5312,11.361866 6.1309,14.455449 2.924746,2.474793 6.018315,3.487093 13.161465,4.331001 2.614,0.285306 4.0834,0.327514 5.53506,0.298903 1.45166,-0.02861 4.38521,-0.05344 6.558261,-0.298903 7.81809,-0.899944 10.96788,-2.137132 14.23013,-5.624462 3.15011,-3.374825 4.21833,-6.243579 5.06223,-13.836882 l 0.73122,-6.187219 0.89969,6.862113 c 1.06865,7.930908 2.5312,11.361866 6.13089,14.455449 2.92475,2.474793 6.018309,3.487093 13.161472,4.331001 3.05871,0.261691 5.42344,0.316089 5.96243,0.316089 0.53899,0 6.13089,-0.316089 6.13089,-0.316089 7.81809,-0.899944 10.96788,-2.137132 14.23014,-5.624462 3.1501,-3.374825 3.55685,-5.91285 4.40076,-13.506153 l 0.73071,-6.187219 0.9002,6.862113 c 1.06864,7.930908 2.44378,9.550587 5.94994,13.111892 3.85548,2.86502 6.45955,3.957339 11.32095,5.357814 5.04234,0.671434 5.76379,0.699523 9.0722,0.712782 z"
         sodipodi:nodetypes="ccczczccccczzzcccccczcccccczzcczczcccccczccccccczcccccccc" /><path
         id="path70"
         style="display:inline;fill:#05001f;fill-opacity:1;stroke:#000000;stroke-width:0;stroke-linecap:round;stroke-linejoin:round"
         inkscape:label="path46"
         d="M 209.99648,46.959408 V 19.493384 c -0.8056,-4.592868 -1.99475,-6.938766 -4.47776,-9.5988975 -3.26225,-3.48733 -7.68666,-4.9109817 -12.12071,-5.4890706 -4.43405,-0.578088 -4.86672,-0.5915677 -8.78034,-0.4656047 -0.0936,7.9614588 -0.3128,17.5092808 0.0661,23.2688638 0.37895,5.759582 2.90465,10.855933 6.2792,14.286983 3.5633,3.232673 6.24969,4.17877 13.14183,5.045687 2.01262,0.310366 4.33606,0.402653 5.89163,0.418063 z" /></g><path
       id="path87"
       style="display:inline;fill:#05001f;fill-opacity:1;stroke:#000000;stroke-width:0;stroke-linecap:round;stroke-linejoin:round"
       inkscape:label="path46"
       d="m 79.65922,262.71368 c -1.12635,0.0172 -4.095774,0.0598 -6.333464,0.3359 -8.09931,0.89999 -10.686474,1.91224 -14.117484,5.34334 -3.374561,3.43105 -4.443551,6.18756 -5.399671,14.39964 l -0.731221,5.90506 -0.730705,-6.35568 c -0.89994,-7.70587 -2.193697,-11.08047 -5.737117,-14.34279 -3.31853,-3.14973 -7.245174,-4.37665 -12.983187,-4.85966 -5.738012,-0.48301 -5.088803,-0.24141 -6.276103,-0.27026 -1.1873,-0.0289 -4.481984,-0.008 -7.206795,0.41186 -6.892139,0.86691 -9.578532,1.81301 -13.1418332,5.04568 -3.37455,3.43105 -5.8997332,8.52689 -6.27868653,14.28647 -0.24772091,3.76503 -0.24011612,9.14896 -0.1788004,14.65027 l 23.09058013,0.0269 c 1.615876,-2.56098 2.361093,-5.59173 2.984314,-11.19932 l 0.731221,-6.18722 0.899687,6.86212 c 0.660676,4.90321 1.472084,8.08631 2.845821,10.5332 l 44.808634,0.0522 c 1.642841,-2.57392 2.395427,-5.60817 3.023588,-11.26029 l 0.731222,-6.18722 0.899687,6.86211 c 0.666187,4.94406 1.48527,8.13921 2.879927,10.59419 l 44.662906,0.0522 c 1.45886,-2.48188 1.84499,-5.33308 2.47375,-10.99054 l 0.73071,-6.18722 0.9002,6.86211 c 0.76127,5.64976 1.67819,8.09675 3.41013,10.32443 l 45.06237,0.0522 c 2.01687,-2.49168 3.39556,-5.36317 3.44681,-11.28406 0.0683,-7.88715 -0.0216,-15.1234 0,-23.05027 -2.03836,0.0616 -2.04712,-0.12337 -7.08122,0.20825 -5.03411,0.33162 -8.93361,1.61458 -12.36462,5.04569 -3.37455,3.43105 -4.44354,6.18756 -5.39967,14.39964 l -0.7307,5.90506 -0.73122,-6.35568 c -0.89995,-7.70587 -2.1937,-11.08047 -5.73712,-14.3428 -3.31853,-3.14972 -9.88983,-4.80016 -13.85962,-4.92269 -3.96978,-0.12254 -5.69681,-0.12424 -6.91534,-0.0977 -1.21854,0.0266 -4.36931,-0.0173 -5.66529,0.0708 -1.29597,0.0881 -10.26584,1.91223 -13.69684,5.34334 -3.37455,3.43105 -4.44355,6.18756 -5.39967,14.39964 l -0.7307,5.90506 -0.73122,-6.35568 c -0.89995,-7.70586 -2.1937,-11.08046 -5.737123,-14.34278 -3.31853,-3.14973 -6.130646,-4.16287 -13.836365,-5.06274 0,0 -4.723412,-0.23989 -5.849772,-0.22273 z" /><path
       id="path91"
       style="display:inline;fill:#05001f;fill-opacity:1;stroke:#000000;stroke-width:0;stroke-linecap:round;stroke-linejoin:round"
       inkscape:label="path46"
       d="m 188.30789,263.12451 c -1.15163,-0.0599 -2.23828,-0.0315 -4.19509,0.0315 -0.0936,7.96146 -0.31276,17.50928 0.0661,23.26886 0.27278,4.14593 1.6577,7.94807 3.6711,11.03292 l 21.64157,0.0253 V 278.7096 c -0.8056,-4.59287 -1.99475,-6.93876 -4.47776,-9.59889 -3.26225,-3.48733 -7.68666,-4.91099 -12.12071,-5.48908 -2.21703,-0.28904 -3.43363,-0.43724 -4.58525,-0.49712 z" /><path
       style="fill:#ff0404;fill-opacity:0.455744;stroke:#9600f4;stroke-width:0.00499999;stroke-linecap:round;stroke-linejoin:round;stroke-dasharray:none;stroke-opacity:1"
       d="m -11.152084,261.42436 232.304164,-1.5875"
       id="path73" /></g></svg>
