<?xml version="1.0" encoding="UTF-8" standalone="no"?>
<!-- Created with Inkscape (http://www.inkscape.org/) -->

<svg
   width="210mm"
   height="297mm"
   viewBox="0 0 210 297"
   version="1.1"
   id="svg1"
   xml:space="preserve"
   inkscape:version="1.4.2 (f4327f4, 2025-05-13)"
   sodipodi:docname="elemento folha.svg"
   inkscape:export-filename="elemento folha elemplo.png"
   inkscape:export-xdpi="96"
   inkscape:export-ydpi="96"
   xmlns:inkscape="http://www.inkscape.org/namespaces/inkscape"
   xmlns:sodipodi="http://sodipodi.sourceforge.net/DTD/sodipodi-0.dtd"
   xmlns="http://www.w3.org/2000/svg"
   xmlns:svg="http://www.w3.org/2000/svg"><sodipodi:namedview
     id="namedview1"
     pagecolor="#ffffff"
     bordercolor="#000000"
     borderopacity="0.25"
     inkscape:showpageshadow="2"
     inkscape:pageopacity="0.0"
     inkscape:pagecheckerboard="0"
     inkscape:deskcolor="#d1d1d1"
     inkscape:document-units="mm"
     inkscape:zoom="0.5"
     inkscape:cx="355"
     inkscape:cy="232"
     inkscape:window-width="1366"
     inkscape:window-height="697"
     inkscape:window-x="-8"
     inkscape:window-y="-8"
     inkscape:window-maximized="1"
     inkscape:current-layer="layer1" /><defs
     id="defs1"><rect
       x="334.15234"
       y="14.742015"
       width="518.42749"
       height="501.22849"
       id="rect12" /><inkscape:path-effect
       effect="bspline"
       id="path-effect43"
       is_visible="true"
       lpeversion="1.3"
       weight="33.333333"
       steps="2"
       helper_size="0"
       apply_no_weight="true"
       apply_with_weight="true"
       only_selected="false"
       uniform="false" /><rect
       x="300.35336"
       y="946.99646"
       width="1098.9399"
       height="226.14841"
       id="rect7" /><rect
       x="378.09186"
       y="374.55829"
       width="897.52649"
       height="650.1767"
       id="rect39" /><inkscape:path-effect
       effect="bspline"
       id="path-effect18"
       is_visible="true"
       lpeversion="1.3"
       weight="33.333333"
       steps="2"
       helper_size="0"
       apply_no_weight="true"
       apply_with_weight="true"
       only_selected="false"
       uniform="false" /><inkscape:path-effect
       effect="bspline"
       id="path-effect16"
       is_visible="true"
       lpeversion="1.3"
       weight="33.333333"
       steps="2"
       helper_size="0"
       apply_no_weight="true"
       apply_with_weight="true"
       only_selected="false"
       uniform="false" /><inkscape:path-effect
       effect="bspline"
       id="path-effect5"
       is_visible="true"
       lpeversion="1.3"
       weight="33.333333"
       steps="2"
       helper_size="0"
       apply_no_weight="true"
       apply_with_weight="true"
       only_selected="false"
       uniform="false" /><inkscape:path-effect
       effect="bspline"
       id="path-effect3"
       is_visible="true"
       lpeversion="1.3"
       weight="33.333333"
       steps="2"
       helper_size="0"
       apply_no_weight="true"
       apply_with_weight="true"
       only_selected="false"
       uniform="false" /><rect
       x="589.89899"
       y="367.67676"
       width="850.50507"
       height="256.56567"
       id="rect6" /><rect
       x="804.04041"
       y="345.45456"
       width="543.43433"
       height="474.74747"
       id="rect5" /><rect
       x="652.52527"
       y="406.06061"
       width="583.83838"
       height="355.55557"
       id="rect3" /><rect
       x="929.29291"
       y="531.31311"
       width="446.46466"
       height="232.32323"
       id="rect2" /><rect
       x="652.52527"
       y="406.06061"
       width="583.83838"
       height="355.55557"
       id="rect4" /><rect
       x="378.09186"
       y="374.55829"
       width="897.52649"
       height="650.1767"
       id="rect10" /><rect
       x="300.35336"
       y="946.99646"
       width="1098.9399"
       height="226.14841"
       id="rect11" /><rect
       x="378.09186"
       y="374.55829"
       width="897.52649"
       height="650.1767"
       id="rect15" /><rect
       x="300.35336"
       y="946.99646"
       width="1098.9399"
       height="226.14841"
       id="rect16" /><rect
       x="378.09186"
       y="374.55829"
       width="897.52649"
       height="650.1767"
       id="rect33" /><rect
       x="300.35336"
       y="946.99646"
       width="1098.9399"
       height="226.14841"
       id="rect34" /><rect
       x="378.09186"
       y="374.55829"
       width="897.52649"
       height="650.1767"
       id="rect36" /><rect
       x="300.35336"
       y="946.99646"
       width="1098.9399"
       height="226.14841"
       id="rect37" /><rect
       x="300.35336"
       y="946.99646"
       width="1098.9399"
       height="226.14841"
       id="rect64" /><rect
       x="378.09186"
       y="374.55829"
       width="897.52649"
       height="650.1767"
       id="rect41" /><rect
       x="334.15234"
       y="14.742015"
       width="518.42749"
       height="501.22849"
       id="rect13" /><rect
       x="334.15234"
       y="14.742015"
       width="518.42749"
       height="501.22849"
       id="rect17" /><rect
       x="334.15234"
       y="14.742015"
       width="518.42749"
       height="501.22849"
       id="rect18" /></defs><g
     inkscape:label="Camada 1"
     inkscape:groupmode="layer"
     id="layer1"><path
       id="path61"
       style="display:inline;fill:#f01f5c;fill-opacity:1;stroke:#000000;stroke-width:0;stroke-linecap:round;stroke-linejoin:round"
       inkscape:label="path46"
       d="M 147.17655,237.29675 V 94.030502 C 142.97444,70.073569 136.77168,57.837061 123.81999,43.961489 106.80369,25.771141 83.725408,18.345152 60.596845,15.329814 37.468285,12.314424 35.211426,12.244111 14.797494,12.901134 14.309265,54.429106 13.16589,104.23173 15.142279,134.27442 c 1.976651,30.04274 15.151019,56.62594 32.753093,74.52273 18.586619,16.86201 32.599169,21.79698 68.549428,26.3189 10.49808,1.61892 22.61744,2.10032 30.73149,2.1807 z" /><path
       id="path1"
       style="display:inline;fill:#843f99;fill-opacity:1;stroke:#000000;stroke-width:0;stroke-linecap:round;stroke-linejoin:round"
       inkscape:label="path46"
       d="M 197.5511,287.14658 V 143.88032 C 193.34899,119.92339 187.14623,107.68688 174.19454,93.811312 157.17824,75.620964 134.09997,68.194975 110.9714,65.179637 87.842843,62.164247 85.585984,62.093934 65.172052,62.750957 c -0.488229,41.527973 -1.631604,91.330593 0.344785,121.373293 1.976651,30.04274 15.151019,56.62594 32.753093,74.52273 18.58662,16.86201 32.59917,21.79698 68.54942,26.3189 10.49808,1.61892 22.61744,2.10032 30.73149,2.1807 z" /></g></svg>
