<?xml version="1.0" encoding="UTF-8" standalone="no"?>
<!-- Created with Inkscape (http://www.inkscape.org/) -->

<svg
   width="2000"
   height="900"
   viewBox="0 0 529.16665 238.12503"
   version="1.1"
   id="svg1"
   xml:space="preserve"
   inkscape:version="1.4.2 (f4327f4, 2025-05-13)"
   sodipodi:docname="logotipo oficial monocromático rosa 1 - revisado.svg"
   inkscape:export-filename="logotipo oficial monocromático rosa 1 - revisado.png"
   inkscape:export-xdpi="19.200001"
   inkscape:export-ydpi="19.200001"
   xmlns:inkscape="http://www.inkscape.org/namespaces/inkscape"
   xmlns:sodipodi="http://sodipodi.sourceforge.net/DTD/sodipodi-0.dtd"
   xmlns="http://www.w3.org/2000/svg"
   xmlns:svg="http://www.w3.org/2000/svg"><sodipodi:namedview
     id="namedview1"
     pagecolor="#858585"
     bordercolor="#000000"
     borderopacity="0.25"
     inkscape:showpageshadow="2"
     inkscape:pageopacity="0.0"
     inkscape:pagecheckerboard="0"
     inkscape:deskcolor="#d1d1d1"
     inkscape:document-units="mm"
     inkscape:zoom="0.303"
     inkscape:cx="1000"
     inkscape:cy="448.84488"
     inkscape:window-width="1366"
     inkscape:window-height="697"
     inkscape:window-x="-8"
     inkscape:window-y="-8"
     inkscape:window-maximized="1"
     inkscape:current-layer="layer7"
     showguides="false" /><defs
     id="defs1"><rect
       x="334.15234"
       y="14.742015"
       width="518.42749"
       height="501.22849"
       id="rect12" /><inkscape:path-effect
       effect="bspline"
       id="path-effect43"
       is_visible="true"
       lpeversion="1.3"
       weight="33.333333"
       steps="2"
       helper_size="0"
       apply_no_weight="true"
       apply_with_weight="true"
       only_selected="false"
       uniform="false" /><rect
       x="300.35336"
       y="946.99646"
       width="1098.9399"
       height="226.14841"
       id="rect7" /><rect
       x="378.09186"
       y="374.55829"
       width="897.52649"
       height="650.1767"
       id="rect39" /><inkscape:path-effect
       effect="bspline"
       id="path-effect18"
       is_visible="true"
       lpeversion="1.3"
       weight="33.333333"
       steps="2"
       helper_size="0"
       apply_no_weight="true"
       apply_with_weight="true"
       only_selected="false"
       uniform="false" /><inkscape:path-effect
       effect="bspline"
       id="path-effect16"
       is_visible="true"
       lpeversion="1.3"
       weight="33.333333"
       steps="2"
       helper_size="0"
       apply_no_weight="true"
       apply_with_weight="true"
       only_selected="false"
       uniform="false" /><inkscape:path-effect
       effect="bspline"
       id="path-effect5"
       is_visible="true"
       lpeversion="1.3"
       weight="33.333333"
       steps="2"
       helper_size="0"
       apply_no_weight="true"
       apply_with_weight="true"
       only_selected="false"
       uniform="false" /><inkscape:path-effect
       effect="bspline"
       id="path-effect3"
       is_visible="true"
       lpeversion="1.3"
       weight="33.333333"
       steps="2"
       helper_size="0"
       apply_no_weight="true"
       apply_with_weight="true"
       only_selected="false"
       uniform="false" /><rect
       x="589.89899"
       y="367.67676"
       width="850.50507"
       height="256.56567"
       id="rect6" /><rect
       x="804.04041"
       y="345.45456"
       width="543.43433"
       height="474.74747"
       id="rect5" /><rect
       x="652.52527"
       y="406.06061"
       width="583.83838"
       height="355.55557"
       id="rect3" /><rect
       x="929.29291"
       y="531.31311"
       width="446.46466"
       height="232.32323"
       id="rect2" /><rect
       x="652.52527"
       y="406.06061"
       width="583.83838"
       height="355.55557"
       id="rect4" /><rect
       x="378.09186"
       y="374.55829"
       width="897.52649"
       height="650.1767"
       id="rect10" /><rect
       x="300.35336"
       y="946.99646"
       width="1098.9399"
       height="226.14841"
       id="rect11" /><rect
       x="378.09186"
       y="374.55829"
       width="897.52649"
       height="650.1767"
       id="rect15" /><rect
       x="300.35336"
       y="946.99646"
       width="1098.9399"
       height="226.14841"
       id="rect16" /><rect
       x="378.09186"
       y="374.55829"
       width="897.52649"
       height="650.1767"
       id="rect33" /><rect
       x="300.35336"
       y="946.99646"
       width="1098.9399"
       height="226.14841"
       id="rect34" /><rect
       x="378.09186"
       y="374.55829"
       width="897.52649"
       height="650.1767"
       id="rect36" /><rect
       x="300.35336"
       y="946.99646"
       width="1098.9399"
       height="226.14841"
       id="rect37" /><rect
       x="300.35336"
       y="946.99646"
       width="1098.9399"
       height="226.14841"
       id="rect64" /><rect
       x="378.09186"
       y="374.55829"
       width="897.52649"
       height="650.1767"
       id="rect41" /><rect
       x="334.15234"
       y="14.742015"
       width="518.42749"
       height="501.22849"
       id="rect13" /><rect
       x="334.15234"
       y="14.742015"
       width="518.42749"
       height="501.22849"
       id="rect17" /><rect
       x="334.15234"
       y="14.742015"
       width="518.42749"
       height="501.22849"
       id="rect18" /><rect
       x="300.35336"
       y="946.99646"
       width="1098.9399"
       height="226.14841"
       id="rect7-4" /></defs><g
     inkscape:groupmode="layer"
     id="layer7"
     inkscape:label="hoc works faixa gradient meio"
     style="display:inline"
     transform="matrix(2.282017,0,0,2.282017,-77.682337,54.883808)"><path
       d="m 105.45363,6.7348103 c 2.17586,1.559922 4.00618,3.6465707 5.49117,6.2597767 0.57812,1.017333 1.07313,2.12773 1.48494,3.331317 h 80.52748 c 0.83034,-1.16331 1.74145,-2.256817 2.73332,-3.280592 v 0 c 0.7291,-0.752558 1.50212,-1.467553 2.3185,-2.144714 l 0.23487,-0.217393 0.27913,-0.199503 c 0.78535,-0.6225463 1.60938,-1.2116773 2.47201,-1.7674473 l 0.31478,-0.2250924 0.37767,-0.208788 c 0.80467,-0.4903299 1.64135,-0.9530287 2.51019,-1.3879162 l 0.21391,-0.1182073 v -0.041441 z"
       style="display:inline;fill:#f01f5c;stroke-width:1.92088;stroke-linecap:round;stroke-linejoin:round;fill-opacity:1"
       id="path33" /><path
       id="path46"
       style="display:inline;font-style:normal;font-variant:normal;font-weight:normal;font-stretch:normal;font-size:192px;font-family:'BBH Sans Hegarty';-inkscape-font-specification:'BBH Sans Hegarty';text-align:start;writing-mode:lr-tb;direction:ltr;white-space:pre;shape-inside:url(#rect39);fill:#f01f5c;fill-opacity:1;stroke:none;stroke-width:1.31463;stroke-linecap:square;stroke-linejoin:bevel;stroke-dasharray:none;stroke-opacity:0.535326"
       d="M 35.359442,-17.630434 V 57.79121 h 0.146289 31.19861 V 37.343649 c 0,-2.65226 0.602777,-4.741978 1.808348,-6.269029 1.205573,-1.607437 2.772792,-2.411051 4.701708,-2.411051 2.009287,0 3.536232,0.803614 4.581062,2.411051 1.1252,1.527051 1.687702,3.616769 1.687702,6.269029 V 57.79121 H 110.82805 V 28.784218 c 0,-5.786751 -1.085,-10.448401 -3.25502,-13.984746 -2.17004,-3.536347 -5.02308,-6.1082822 -8.559426,-7.7157127 -3.455972,-1.6878006 -7.193462,-2.5316877 -11.212037,-2.5316877 -4.581177,0 -8.840616,1.205553 -12.77882,3.6166976 -3.938205,2.4111458 -6.710974,6.1083558 -8.318406,11.0913888 v -36.890592 z" /><path
       id="path58"
       style="display:inline;font-style:normal;font-variant:normal;font-weight:normal;font-stretch:normal;font-size:192px;font-family:'BBH Sans Hegarty';-inkscape-font-specification:'BBH Sans Hegarty';text-align:start;writing-mode:lr-tb;direction:ltr;white-space:pre;shape-inside:url(#rect39);fill:#f01f5c;fill-opacity:1;stroke:none;stroke-width:1.31463;stroke-linecap:square;stroke-linejoin:bevel;stroke-dasharray:none;stroke-opacity:0.535326"
       d="m 257.71861,57.79121 c 0.21071,-0.222304 0.41769,-0.447649 0.6207,-0.676036 3.29523,-3.6971 5.38483,-7.956712 6.26892,-12.779012 l -28.45166,-4.460823 c -0.48224,2.089663 -1.36632,3.857849 -2.65226,5.304537 -1.20557,1.446688 -2.89335,2.17018 -5.06337,2.17018 -2.25039,0 -4.17919,-0.723492 -5.78661,-2.17018 -1.52706,-1.527052 -2.29065,-3.335337 -2.29065,-5.424989 v -6.268929 c 0,-2.089663 0.76359,-3.857838 2.29065,-5.304524 1.60742,-1.527059 3.53622,-2.290644 5.78661,-2.290644 2.17002,0 3.8578,0.723263 5.06337,2.169949 1.28594,1.446687 2.17002,3.214862 2.65226,5.304525 l 28.45166,-4.460593 c -0.88409,-4.82229 -2.97369,-9.041826 -6.26892,-12.658545 -3.21485,-3.697089 -7.3943,-6.5502769 -12.53809,-8.5595649 -5.0634,-2.0896582 -10.85019,-3.1343446 -17.36028,-3.1343446 -7.31382,0 -13.82386,1.2859255 -19.53024,3.8578148 -5.626,2.4915167 -10.04646,5.9474657 -13.26131,10.3678977 -3.13449,4.420433 -4.70176,9.483737 -4.70176,15.190111 v 5.304523 c 0,5.706387 1.56727,10.76991 4.70176,15.190348 0.85431,1.174677 1.79393,2.284143 2.81852,3.328299 z" /><path
       id="path2"
       style="display:inline;font-style:normal;font-variant:normal;font-weight:normal;font-stretch:normal;font-size:192px;font-family:'BBH Sans Hegarty';-inkscape-font-specification:'BBH Sans Hegarty';text-align:start;writing-mode:lr-tb;direction:ltr;white-space:pre;shape-inside:url(#rect41);fill:#f01f5c;fill-opacity:1;stroke:none;stroke-width:1.31463;stroke-linecap:square;stroke-linejoin:bevel;stroke-dasharray:none;stroke-opacity:0.535326"
       d="m 150.88783,20.953108 c -5.92968,0 -11.18974,1.020163 -15.78044,3.060482 -4.52697,1.976559 -8.09764,4.718118 -10.7118,8.224915 -2.5504,3.506798 -3.82566,7.523628 -3.82566,12.050573 v 4.208134 c 0,3.361667 0.70342,6.459697 2.10984,9.293989 h 56.36381 c 1.44154,-2.834292 2.16215,-5.932322 2.16215,-9.293989 v -4.208134 c 0,-4.526945 -1.30705,-8.543775 -3.92122,-12.050573 -2.5504,-3.506797 -6.12108,-6.248356 -10.7118,-8.224915 -4.52694,-2.040319 -9.75519,-3.060482 -15.68488,-3.060482 z m -1.05322,5.284001 0.43184,3.754552 c 0.53162,4.551982 1.29581,6.545547 3.38906,8.472653 1.96035,1.86069 3.62174,2.458641 8.17374,2.990281 l 3.65491,0.431842 -3.82113,0.432068 c -4.61841,0.53161 -6.47895,1.262464 -8.40607,3.322484 -1.86069,1.99359 -2.49214,3.688238 -2.99051,8.173738 l -0.43184,3.654914 -0.53171,-4.053694 c -0.63127,-4.68491 -1.49515,-6.711583 -3.62162,-8.539003 -1.72774,-1.46196 -3.55526,-2.060039 -7.77496,-2.558439 -1.82745,-0.19934 -3.35572,-0.39873 -3.42212,-0.46513 -0.0332,-0.03322 1.49516,-0.23255 3.38906,-0.46513 4.78455,-0.53163 6.31293,-1.129922 8.33972,-3.156722 1.9936,-2.026795 2.62473,-3.6547 3.18956,-8.505715 z"
       transform="translate(-0.90399132)" /><text
       xml:space="preserve"
       transform="matrix(0.7893684,0,0,0.6165486,-202.0275,-528.38463)"
       id="text5-8"
       style="display:inline;font-style:normal;font-variant:normal;font-weight:normal;font-stretch:normal;font-size:28.6899px;font-family:Recursive;-inkscape-font-specification:Recursive;text-align:start;writing-mode:lr-tb;direction:ltr;white-space:pre;shape-inside:url(#rect7-4);fill:#f01f5c;fill-opacity:1;stroke:#000000;stroke-width:0;stroke-linecap:square;stroke-linejoin:bevel;stroke-dasharray:none;stroke-opacity:1"><tspan
         x="300.35352"
         y="973.29517"
         id="tspan1">w   o   r   k   s</tspan></text></g></svg>
