<?xml version="1.0" encoding="UTF-8" standalone="no"?>
<!-- Created with Inkscape (http://www.inkscape.org/) -->

<svg
   width="2000"
   height="900"
   viewBox="0 0 529.16665 238.12503"
   version="1.1"
   id="svg1"
   xml:space="preserve"
   inkscape:version="1.4.2 (f4327f4, 2025-05-13)"
   sodipodi:docname="logotipo oficial branco - revisado.svg"
   inkscape:export-filename="logotipo oficial branco - revisado.png"
   inkscape:export-xdpi="19.200001"
   inkscape:export-ydpi="19.200001"
   xmlns:inkscape="http://www.inkscape.org/namespaces/inkscape"
   xmlns:sodipodi="http://sodipodi.sourceforge.net/DTD/sodipodi-0.dtd"
   xmlns:xlink="http://www.w3.org/1999/xlink"
   xmlns="http://www.w3.org/2000/svg"
   xmlns:svg="http://www.w3.org/2000/svg"><sodipodi:namedview
     id="namedview1"
     pagecolor="#161616"
     bordercolor="#000000"
     borderopacity="0.25"
     inkscape:showpageshadow="2"
     inkscape:pageopacity="0.0"
     inkscape:pagecheckerboard="0"
     inkscape:deskcolor="#d1d1d1"
     inkscape:document-units="mm"
     inkscape:zoom="0.41"
     inkscape:cx="1001.2195"
     inkscape:cy="451.21951"
     inkscape:window-width="1366"
     inkscape:window-height="697"
     inkscape:window-x="-8"
     inkscape:window-y="-8"
     inkscape:window-maximized="1"
     inkscape:current-layer="layer7"
     showguides="false" /><defs
     id="defs1"><linearGradient
       id="linearGradient35"
       inkscape:collect="always"><stop
         style="stop-color:#f66e06;stop-opacity:1;"
         offset="0.04533333"
         id="stop35" /><stop
         style="stop-color:#f01f5c;stop-opacity:1;"
         offset="0.27200001"
         id="stop36" /><stop
         style="stop-color:#f012d1;stop-opacity:1;"
         offset="0.49599999"
         id="stop37" /><stop
         style="stop-color:#843f99;stop-opacity:1;"
         offset="0.72533333"
         id="stop45" /><stop
         style="stop-color:#0a5599;stop-opacity:1;"
         offset="0.94933331"
         id="stop38" /></linearGradient><rect
       x="334.15234"
       y="14.742015"
       width="518.42749"
       height="501.22849"
       id="rect12" /><inkscape:path-effect
       effect="bspline"
       id="path-effect43"
       is_visible="true"
       lpeversion="1.3"
       weight="33.333333"
       steps="2"
       helper_size="0"
       apply_no_weight="true"
       apply_with_weight="true"
       only_selected="false"
       uniform="false" /><rect
       x="300.35336"
       y="946.99646"
       width="1098.9399"
       height="226.14841"
       id="rect7" /><rect
       x="378.09186"
       y="374.55829"
       width="897.52649"
       height="650.1767"
       id="rect39" /><inkscape:path-effect
       effect="bspline"
       id="path-effect18"
       is_visible="true"
       lpeversion="1.3"
       weight="33.333333"
       steps="2"
       helper_size="0"
       apply_no_weight="true"
       apply_with_weight="true"
       only_selected="false"
       uniform="false" /><inkscape:path-effect
       effect="bspline"
       id="path-effect16"
       is_visible="true"
       lpeversion="1.3"
       weight="33.333333"
       steps="2"
       helper_size="0"
       apply_no_weight="true"
       apply_with_weight="true"
       only_selected="false"
       uniform="false" /><inkscape:path-effect
       effect="bspline"
       id="path-effect5"
       is_visible="true"
       lpeversion="1.3"
       weight="33.333333"
       steps="2"
       helper_size="0"
       apply_no_weight="true"
       apply_with_weight="true"
       only_selected="false"
       uniform="false" /><inkscape:path-effect
       effect="bspline"
       id="path-effect3"
       is_visible="true"
       lpeversion="1.3"
       weight="33.333333"
       steps="2"
       helper_size="0"
       apply_no_weight="true"
       apply_with_weight="true"
       only_selected="false"
       uniform="false" /><rect
       x="589.89899"
       y="367.67676"
       width="850.50507"
       height="256.56567"
       id="rect6" /><rect
       x="804.04041"
       y="345.45456"
       width="543.43433"
       height="474.74747"
       id="rect5" /><rect
       x="652.52527"
       y="406.06061"
       width="583.83838"
       height="355.55557"
       id="rect3" /><rect
       x="929.29291"
       y="531.31311"
       width="446.46466"
       height="232.32323"
       id="rect2" /><rect
       x="652.52527"
       y="406.06061"
       width="583.83838"
       height="355.55557"
       id="rect4" /><rect
       x="378.09186"
       y="374.55829"
       width="897.52649"
       height="650.1767"
       id="rect10" /><rect
       x="300.35336"
       y="946.99646"
       width="1098.9399"
       height="226.14841"
       id="rect11" /><rect
       x="378.09186"
       y="374.55829"
       width="897.52649"
       height="650.1767"
       id="rect15" /><rect
       x="300.35336"
       y="946.99646"
       width="1098.9399"
       height="226.14841"
       id="rect16" /><rect
       x="378.09186"
       y="374.55829"
       width="897.52649"
       height="650.1767"
       id="rect33" /><rect
       x="300.35336"
       y="946.99646"
       width="1098.9399"
       height="226.14841"
       id="rect34" /><rect
       x="378.09186"
       y="374.55829"
       width="897.52649"
       height="650.1767"
       id="rect36" /><rect
       x="300.35336"
       y="946.99646"
       width="1098.9399"
       height="226.14841"
       id="rect37" /><rect
       x="300.35336"
       y="946.99646"
       width="1098.9399"
       height="226.14841"
       id="rect64" /><rect
       x="378.09186"
       y="374.55829"
       width="897.52649"
       height="650.1767"
       id="rect41" /><rect
       x="334.15234"
       y="14.742015"
       width="518.42749"
       height="501.22849"
       id="rect13" /><rect
       x="334.15234"
       y="14.742015"
       width="518.42749"
       height="501.22849"
       id="rect17" /><rect
       x="334.15234"
       y="14.742015"
       width="518.42749"
       height="501.22849"
       id="rect18" /><linearGradient
       inkscape:collect="always"
       xlink:href="#linearGradient35"
       id="linearGradient36"
       x1="76.282608"
       y1="57.341244"
       x2="262.64185"
       y2="57.341244"
       gradientUnits="userSpaceOnUse"
       gradientTransform="matrix(0.57400797,0,0,1.0980136,57.74431,-49.626149)" /><rect
       x="300.35336"
       y="946.99646"
       width="1098.9399"
       height="226.14841"
       id="rect7-4" /></defs><g
     inkscape:groupmode="layer"
     id="layer7"
     inkscape:label="hoc works faixa gradient meio"
     style="display:inline"
     transform="matrix(2.282017,0,0,2.282017,-77.682337,54.883808)"><g
       id="g2"><rect
         style="display:inline;fill:url(#linearGradient36);stroke:none;stroke-width:1.9961;stroke-linecap:round;stroke-linejoin:round;stroke-opacity:1"
         id="rect19"
         width="106.97169"
         height="9.5911007"
         x="101.53112"
         y="8.5397596" /><path
         id="path46"
         style="font-style:normal;font-variant:normal;font-weight:normal;font-stretch:normal;font-size:192px;font-family:'BBH Sans Hegarty';-inkscape-font-specification:'BBH Sans Hegarty';text-align:start;writing-mode:lr-tb;direction:ltr;white-space:pre;shape-inside:url(#rect39);display:inline;fill:#e6eeff;fill-opacity:1;stroke:none;stroke-width:50.0005;stroke-linecap:square;stroke-linejoin:bevel;stroke-dasharray:none;stroke-opacity:1"
         d="M 35.359442,-17.630434 V 57.79121 h 0.146289 31.19861 V 37.343649 c 0,-2.65226 0.602777,-4.741978 1.808348,-6.269029 1.205573,-1.607437 2.772792,-2.411051 4.701708,-2.411051 2.009287,0 3.536232,0.803614 4.581062,2.411051 1.1252,1.527051 1.687702,3.616769 1.687702,6.269029 V 57.79121 H 110.82805 V 28.784218 c 0,-5.786751 -1.085,-10.448401 -3.25502,-13.984746 -2.17004,-3.536347 -5.02308,-6.1082822 -8.559426,-7.7157127 -3.455972,-1.6878006 -7.193462,-2.5316877 -11.212037,-2.5316877 -4.581177,0 -8.840616,1.205553 -12.77882,3.6166976 -3.938205,2.4111458 -6.710974,6.1083558 -8.318406,11.0913888 v -36.890592 z" /><path
         id="path58"
         style="font-style:normal;font-variant:normal;font-weight:normal;font-stretch:normal;font-size:192px;font-family:'BBH Sans Hegarty';-inkscape-font-specification:'BBH Sans Hegarty';text-align:start;writing-mode:lr-tb;direction:ltr;white-space:pre;shape-inside:url(#rect39);display:inline;fill:#e6eeff;fill-opacity:1;stroke:none;stroke-width:50.0005;stroke-linecap:square;stroke-linejoin:bevel;stroke-dasharray:none;stroke-opacity:1"
         d="m 257.71861,57.79121 c 0.21071,-0.222304 0.41769,-0.447649 0.6207,-0.676036 3.29523,-3.6971 5.38483,-7.956712 6.26892,-12.779012 l -28.45166,-4.460823 c -0.48224,2.089663 -1.36632,3.857849 -2.65226,5.304537 -1.20557,1.446688 -2.89335,2.17018 -5.06337,2.17018 -2.25039,0 -4.17919,-0.723492 -5.78661,-2.17018 -1.52706,-1.527052 -2.29065,-3.335337 -2.29065,-5.424989 v -6.268929 c 0,-2.089663 0.76359,-3.857838 2.29065,-5.304524 1.60742,-1.527059 3.53622,-2.290644 5.78661,-2.290644 2.17002,0 3.8578,0.723263 5.06337,2.169949 1.28594,1.446687 2.17002,3.214862 2.65226,5.304525 l 28.45166,-4.460593 c -0.88409,-4.82229 -2.97369,-9.041826 -6.26892,-12.658545 -3.21485,-3.697089 -7.3943,-6.5502769 -12.53809,-8.5595649 -5.0634,-2.0896582 -10.85019,-3.1343446 -17.36028,-3.1343446 -7.31382,0 -13.82386,1.2859255 -19.53024,3.8578148 -5.626,2.4915167 -10.04646,5.9474657 -13.26131,10.3678977 -3.13449,4.420433 -4.70176,9.483737 -4.70176,15.190111 v 5.304523 c 0,5.706387 1.56727,10.76991 4.70176,15.190348 0.85431,1.174677 1.79393,2.284143 2.81852,3.328299 z" /><text
         xml:space="preserve"
         transform="matrix(0.7893684,0,0,0.61654861,-202.0275,-528.38464)"
         id="text5-8"
         style="font-style:normal;font-variant:normal;font-weight:normal;font-stretch:normal;font-size:28.6899px;font-family:Recursive;-inkscape-font-specification:Recursive;text-align:start;writing-mode:lr-tb;direction:ltr;white-space:pre;shape-inside:url(#rect7-4);display:inline;fill:#e6eeff;fill-opacity:1;stroke:#000000;stroke-width:0;stroke-linecap:square;stroke-linejoin:bevel;stroke-dasharray:none;stroke-opacity:1"><tspan
           x="300.35352"
           y="973.29517"
           id="tspan1">w   o   r   k   s</tspan></text><path
         id="path2"
         style="font-style:normal;font-variant:normal;font-weight:normal;font-stretch:normal;font-size:192px;font-family:'BBH Sans Hegarty';-inkscape-font-specification:'BBH Sans Hegarty';text-align:start;writing-mode:lr-tb;direction:ltr;white-space:pre;shape-inside:url(#rect41);display:inline;fill:#e6eeff;fill-opacity:1;stroke:none;stroke-width:39.6661;stroke-linecap:square;stroke-linejoin:bevel;stroke-dasharray:none;stroke-opacity:1"
         d="M 150.88783 20.953108 C 144.95815 20.953108 139.69809 21.973271 135.10739 24.01359 C 130.58042 25.990149 127.00975 28.731708 124.39559 32.238505 C 121.84519 35.745303 120.56993 39.762133 120.56993 44.289078 L 120.56993 48.497212 C 120.56993 51.858879 121.27335 54.956909 122.67977 57.791201 L 179.04358 57.791201 C 180.48512 54.956909 181.20573 51.858879 181.20573 48.497212 L 181.20573 44.289078 C 181.20573 39.762133 179.89868 35.745303 177.28451 32.238505 C 174.73411 28.731708 171.16343 25.990149 166.57271 24.01359 C 162.04577 21.973271 156.81752 20.953108 150.88783 20.953108 z M 149.83461 26.237109 L 150.26645 29.991661 C 150.79807 34.543643 151.56226 36.537208 153.65551 38.464314 C 155.61586 40.325004 157.27725 40.922955 161.82925 41.454595 L 165.48416 41.886437 L 161.66303 42.318505 C 157.04462 42.850115 155.18408 43.580969 153.25696 45.640989 C 151.39627 47.634579 150.76482 49.329227 150.26645 53.814727 L 149.83461 57.469641 L 149.3029 53.415947 C 148.67163 48.731037 147.80775 46.704364 145.68128 44.876944 C 143.95354 43.414984 142.12602 42.816905 137.90632 42.318505 C 136.07887 42.119165 134.5506 41.919775 134.4842 41.853375 C 134.45096 41.820155 135.97936 41.620825 137.87326 41.388245 C 142.65781 40.856615 144.18619 40.258323 146.21298 38.231523 C 148.20658 36.204728 148.83771 34.576823 149.40254 29.725808 L 149.83461 26.237109 z " /></g></g></svg>
