<?xml version="1.0" encoding="UTF-8" standalone="no"?>
<!-- Created with Inkscape (http://www.inkscape.org/) -->

<svg
   width="3000"
   height="1000"
   viewBox="0 0 793.74985 264.58328"
   version="1.1"
   id="svg1"
   xml:space="preserve"
   inkscape:version="1.4.2 (f4327f4, 2025-05-13)"
   sodipodi:docname="logotipo oficial preto grid - revisado.svg"
   inkscape:export-filename="logo png\logotipo oficial preto grid - revisado.png"
   inkscape:export-xdpi="600"
   inkscape:export-ydpi="600"
   xmlns:inkscape="http://www.inkscape.org/namespaces/inkscape"
   xmlns:sodipodi="http://sodipodi.sourceforge.net/DTD/sodipodi-0.dtd"
   xmlns:xlink="http://www.w3.org/1999/xlink"
   xmlns="http://www.w3.org/2000/svg"
   xmlns:svg="http://www.w3.org/2000/svg"><sodipodi:namedview
     id="namedview1"
     pagecolor="#ffffff"
     bordercolor="#000000"
     borderopacity="0.25"
     inkscape:showpageshadow="2"
     inkscape:pageopacity="0.0"
     inkscape:pagecheckerboard="0"
     inkscape:deskcolor="#d1d1d1"
     inkscape:document-units="mm"
     inkscape:zoom="0.24966667"
     inkscape:cx="1500"
     inkscape:cy="500.66756"
     inkscape:window-width="1366"
     inkscape:window-height="697"
     inkscape:window-x="-8"
     inkscape:window-y="-8"
     inkscape:window-maximized="1"
     inkscape:current-layer="layer7"
     showguides="true"
     inkscape:export-bgcolor="#ffffff00" /><defs
     id="defs1"><linearGradient
       id="linearGradient35"
       inkscape:collect="always"><stop
         style="stop-color:#f66e06;stop-opacity:1;"
         offset="0.04533333"
         id="stop35" /><stop
         style="stop-color:#f01f5c;stop-opacity:1;"
         offset="0.27200001"
         id="stop36" /><stop
         style="stop-color:#f012d1;stop-opacity:1;"
         offset="0.49599999"
         id="stop37" /><stop
         style="stop-color:#843f99;stop-opacity:1;"
         offset="0.72533333"
         id="stop45" /><stop
         style="stop-color:#0a5599;stop-opacity:1;"
         offset="0.94933331"
         id="stop38" /></linearGradient><rect
       x="334.15234"
       y="14.742015"
       width="518.42749"
       height="501.22849"
       id="rect12" /><inkscape:path-effect
       effect="bspline"
       id="path-effect43"
       is_visible="true"
       lpeversion="1.3"
       weight="33.333333"
       steps="2"
       helper_size="0"
       apply_no_weight="true"
       apply_with_weight="true"
       only_selected="false"
       uniform="false" /><rect
       x="300.35336"
       y="946.99646"
       width="1098.9399"
       height="226.14841"
       id="rect7" /><rect
       x="378.09186"
       y="374.55829"
       width="897.52649"
       height="650.1767"
       id="rect39" /><inkscape:path-effect
       effect="bspline"
       id="path-effect18"
       is_visible="true"
       lpeversion="1.3"
       weight="33.333333"
       steps="2"
       helper_size="0"
       apply_no_weight="true"
       apply_with_weight="true"
       only_selected="false"
       uniform="false" /><inkscape:path-effect
       effect="bspline"
       id="path-effect16"
       is_visible="true"
       lpeversion="1.3"
       weight="33.333333"
       steps="2"
       helper_size="0"
       apply_no_weight="true"
       apply_with_weight="true"
       only_selected="false"
       uniform="false" /><inkscape:path-effect
       effect="bspline"
       id="path-effect5"
       is_visible="true"
       lpeversion="1.3"
       weight="33.333333"
       steps="2"
       helper_size="0"
       apply_no_weight="true"
       apply_with_weight="true"
       only_selected="false"
       uniform="false" /><inkscape:path-effect
       effect="bspline"
       id="path-effect3"
       is_visible="true"
       lpeversion="1.3"
       weight="33.333333"
       steps="2"
       helper_size="0"
       apply_no_weight="true"
       apply_with_weight="true"
       only_selected="false"
       uniform="false" /><rect
       x="589.89899"
       y="367.67676"
       width="850.50507"
       height="256.56567"
       id="rect6" /><rect
       x="804.04041"
       y="345.45456"
       width="543.43433"
       height="474.74747"
       id="rect5" /><rect
       x="652.52527"
       y="406.06061"
       width="583.83838"
       height="355.55557"
       id="rect3" /><rect
       x="929.29291"
       y="531.31311"
       width="446.46466"
       height="232.32323"
       id="rect2" /><rect
       x="652.52527"
       y="406.06061"
       width="583.83838"
       height="355.55557"
       id="rect4" /><rect
       x="378.09186"
       y="374.55829"
       width="897.52649"
       height="650.1767"
       id="rect10" /><rect
       x="300.35336"
       y="946.99646"
       width="1098.9399"
       height="226.14841"
       id="rect11" /><rect
       x="378.09186"
       y="374.55829"
       width="897.52649"
       height="650.1767"
       id="rect15" /><rect
       x="300.35336"
       y="946.99646"
       width="1098.9399"
       height="226.14841"
       id="rect16" /><rect
       x="378.09186"
       y="374.55829"
       width="897.52649"
       height="650.1767"
       id="rect33" /><rect
       x="300.35336"
       y="946.99646"
       width="1098.9399"
       height="226.14841"
       id="rect34" /><rect
       x="378.09186"
       y="374.55829"
       width="897.52649"
       height="650.1767"
       id="rect36" /><rect
       x="300.35336"
       y="946.99646"
       width="1098.9399"
       height="226.14841"
       id="rect37" /><rect
       x="300.35336"
       y="946.99646"
       width="1098.9399"
       height="226.14841"
       id="rect64" /><rect
       x="378.09186"
       y="374.55829"
       width="897.52649"
       height="650.1767"
       id="rect41" /><rect
       x="334.15234"
       y="14.742015"
       width="518.42749"
       height="501.22849"
       id="rect13" /><rect
       x="334.15234"
       y="14.742015"
       width="518.42749"
       height="501.22849"
       id="rect17" /><rect
       x="334.15234"
       y="14.742015"
       width="518.42749"
       height="501.22849"
       id="rect18" /><linearGradient
       inkscape:collect="always"
       xlink:href="#linearGradient35"
       id="linearGradient36"
       x1="76.282608"
       y1="57.341244"
       x2="262.64185"
       y2="57.341244"
       gradientUnits="userSpaceOnUse"
       gradientTransform="matrix(0.57400797,0,0,1.0980136,57.74431,-49.626149)" /><rect
       x="300.35336"
       y="946.99646"
       width="1098.9399"
       height="226.14841"
       id="rect8" /><rect
       x="300.35336"
       y="946.99646"
       width="1098.9399"
       height="226.14841"
       id="rect8-4" /><rect
       x="300.35336"
       y="946.99646"
       width="1098.9399"
       height="226.14841"
       id="rect8-5" /><rect
       x="300.35336"
       y="946.99646"
       width="1098.9399"
       height="226.14841"
       id="rect8-7" /><rect
       x="300.35336"
       y="946.99646"
       width="1098.9399"
       height="226.14841"
       id="rect20" /><rect
       x="300.35336"
       y="946.99646"
       width="1098.9399"
       height="226.14841"
       id="rect21" /></defs><g
     inkscape:groupmode="layer"
     id="layer7"
     inkscape:label="hoc works faixa gradient meio"
     style="display:inline"
     transform="matrix(2.282017,0,0,2.282017,-77.682337,54.883808)"><g
       id="g21"
       transform="translate(0,1.5399588)"><g
         id="g2"
         transform="translate(52.793955,5.2059137)"><text
           xml:space="preserve"
           transform="matrix(0.7893684,0,0,0.6165486,-202.0275,-528.38463)"
           id="text5"
           style="font-style:normal;font-variant:normal;font-weight:normal;font-stretch:normal;font-size:28.6899px;font-family:Recursive;-inkscape-font-specification:Recursive;text-align:start;writing-mode:lr-tb;direction:ltr;white-space:pre;shape-inside:url(#rect7);display:inline;fill:#05001f;fill-opacity:1;stroke:#000000;stroke-width:0;stroke-linecap:square;stroke-linejoin:bevel;stroke-dasharray:none;stroke-opacity:1"><tspan
             x="300.35352"
             y="973.29517"
             id="tspan3">w   o   r   k   s</tspan></text><path
           id="path2"
           style="font-style:normal;font-variant:normal;font-weight:normal;font-stretch:normal;font-size:192px;font-family:'BBH Sans Hegarty';-inkscape-font-specification:'BBH Sans Hegarty';text-align:start;writing-mode:lr-tb;direction:ltr;white-space:pre;shape-inside:url(#rect41);display:inline;fill:#05001f;fill-opacity:1;stroke:none;stroke-width:36.1253;stroke-linecap:square;stroke-linejoin:bevel;stroke-dasharray:none;stroke-opacity:1"
           d="m 151.03902,84.877062 c -5.40037,0 -10.19089,0.929098 -14.37181,2.787289 -4.12287,1.800123 -7.3748,4.296958 -9.75561,7.490723 -2.32274,3.193766 -3.48417,6.852036 -3.48417,10.974886 v 3.8325 c 0,3.06159 0.64063,5.88307 1.92151,8.46436 h 51.33252 c 1.31286,-2.58129 1.96915,-5.40277 1.96915,-8.46436 v -3.8325 c 0,-4.12285 -1.19038,-7.78112 -3.5712,-10.974886 -2.32274,-3.193765 -5.57468,-5.6906 -9.75561,-7.490723 -4.12285,-1.858191 -8.8844,-2.787289 -14.28478,-2.787289 z m -0.95921,4.812327 0.3933,3.419404 c 0.48416,4.145652 1.18014,5.961262 3.08654,7.716347 1.78536,1.6946 3.29844,2.23917 7.44411,2.72335 l 3.32866,0.3933 -3.48004,0.3935 c -4.20615,0.48415 -5.90061,1.14977 -7.65571,3.0259 -1.6946,1.81564 -2.26968,3.35901 -2.72356,7.44412 l -0.3933,3.32866 -0.48424,-3.69185 c -0.57492,-4.26671 -1.36169,-6.11247 -3.29834,-7.77677 -1.57352,-1.33146 -3.2379,-1.87615 -7.08093,-2.33006 -1.66433,-0.18155 -3.05618,-0.36314 -3.11665,-0.42361 -0.0303,-0.0303 1.36169,-0.21179 3.08654,-0.42361 4.35746,-0.48418 5.74941,-1.02906 7.59528,-2.87494 1.81564,-1.845877 2.39043,-3.328467 2.90484,-7.746459 z"
           transform="matrix(1.0980136,0,0,1.0980136,-14.955069,-72.243059)" /><rect
           style="display:inline;fill:url(#linearGradient36);stroke:none;stroke-width:1.9961;stroke-linecap:round;stroke-linejoin:round;stroke-opacity:1"
           id="rect19"
           width="106.97169"
           height="9.5911007"
           x="101.53112"
           y="8.5397596" /><path
           id="path46"
           style="font-style:normal;font-variant:normal;font-weight:normal;font-stretch:normal;font-size:192px;font-family:'BBH Sans Hegarty';-inkscape-font-specification:'BBH Sans Hegarty';text-align:start;writing-mode:lr-tb;direction:ltr;white-space:pre;shape-inside:url(#rect39);display:inline;fill:#05001f;fill-opacity:1;stroke:none;stroke-width:50.0005;stroke-linecap:square;stroke-linejoin:bevel;stroke-dasharray:none;stroke-opacity:1"
           d="M 35.359442,-17.630434 V 57.79121 h 0.146289 31.19861 V 37.343649 c 0,-2.65226 0.602777,-4.741978 1.808348,-6.269029 1.205573,-1.607437 2.772792,-2.411051 4.701708,-2.411051 2.009287,0 3.536232,0.803614 4.581062,2.411051 1.1252,1.527051 1.687702,3.616769 1.687702,6.269029 V 57.79121 H 110.82805 V 28.784218 c 0,-5.786751 -1.085,-10.448401 -3.25502,-13.984746 -2.17004,-3.536347 -5.02308,-6.1082822 -8.559426,-7.7157127 -3.455972,-1.6878006 -7.193462,-2.5316877 -11.212037,-2.5316877 -4.581177,0 -8.840616,1.205553 -12.77882,3.6166976 -3.938205,2.4111458 -6.710974,6.1083558 -8.318406,11.0913888 v -36.890592 z" /><path
           id="path58"
           style="font-style:normal;font-variant:normal;font-weight:normal;font-stretch:normal;font-size:192px;font-family:'BBH Sans Hegarty';-inkscape-font-specification:'BBH Sans Hegarty';text-align:start;writing-mode:lr-tb;direction:ltr;white-space:pre;shape-inside:url(#rect39);display:inline;fill:#05001f;fill-opacity:1;stroke:none;stroke-width:50.0005;stroke-linecap:square;stroke-linejoin:bevel;stroke-dasharray:none;stroke-opacity:1"
           d="m 257.71861,57.79121 c 0.21071,-0.222304 0.41769,-0.447649 0.6207,-0.676036 3.29523,-3.6971 5.38483,-7.956712 6.26892,-12.779012 l -28.45166,-4.460823 c -0.48224,2.089663 -1.36632,3.857849 -2.65226,5.304537 -1.20557,1.446688 -2.89335,2.17018 -5.06337,2.17018 -2.25039,0 -4.17919,-0.723492 -5.78661,-2.17018 -1.52706,-1.527052 -2.29065,-3.335337 -2.29065,-5.424989 v -6.268929 c 0,-2.089663 0.76359,-3.857838 2.29065,-5.304524 1.60742,-1.527059 3.53622,-2.290644 5.78661,-2.290644 2.17002,0 3.8578,0.723263 5.06337,2.169949 1.28594,1.446687 2.17002,3.214862 2.65226,5.304525 l 28.45166,-4.460593 c -0.88409,-4.82229 -2.97369,-9.041826 -6.26892,-12.658545 -3.21485,-3.697089 -7.3943,-6.5502769 -12.53809,-8.5595649 -5.0634,-2.0896582 -10.85019,-3.1343446 -17.36028,-3.1343446 -7.31382,0 -13.82386,1.2859255 -19.53024,3.8578148 -5.626,2.4915167 -10.04646,5.9474657 -13.26131,10.3678977 -3.13449,4.420433 -4.70176,9.483737 -4.70176,15.190111 v 5.304523 c 0,5.706387 1.56727,10.76991 4.70176,15.190348 0.85431,1.174677 1.79393,2.284143 2.81852,3.328299 z" /></g><path
         style="fill:#cb0000;fill-opacity:1;stroke:#f4e800;stroke-width:1.40227;stroke-linecap:round;stroke-linejoin:round;stroke-dasharray:none;stroke-opacity:1"
         d="m 77.814503,-12.431587 249.926587,-0.0038"
         id="path11"
         sodipodi:nodetypes="cc" /><path
         style="fill:#cb0000;fill-opacity:1;stroke:#f4e800;stroke-width:1.40227;stroke-linecap:round;stroke-linejoin:round;stroke-dasharray:none;stroke-opacity:1"
         d="m 77.814505,-22.254131 249.926585,-0.0038"
         id="path12"
         sodipodi:nodetypes="cc" /><path
         style="fill:#cb0000;fill-opacity:1;stroke:#f4e800;stroke-width:1.40228;stroke-linecap:round;stroke-linejoin:round;stroke-dasharray:none;stroke-opacity:1"
         d="m 77.820048,77.723401 250.118122,-0.0038"
         id="path13"
         sodipodi:nodetypes="cc" /><path
         style="fill:#cb0000;fill-opacity:1;stroke:#f4e800;stroke-width:1.40227;stroke-linecap:round;stroke-linejoin:round;stroke-dasharray:none;stroke-opacity:1"
         d="m 77.825653,86.958727 249.904287,-0.0038"
         id="path14"
         sodipodi:nodetypes="cc" /><path
         style="fill:#cb0000;fill-opacity:1;stroke:#f4e800;stroke-width:1.40218;stroke-linecap:round;stroke-linejoin:round;stroke-dasharray:none;stroke-opacity:1"
         d="m 88.06815,86.956565 0.0018,-109.011077"
         id="path15"
         sodipodi:nodetypes="cc" /><path
         style="fill:#cb0000;fill-opacity:1;stroke:#f4e800;stroke-width:1.40223;stroke-linecap:round;stroke-linejoin:round;stroke-dasharray:none;stroke-opacity:1"
         d="M 77.777818,87.019647 77.77601,-22.202318"
         id="path16"
         sodipodi:nodetypes="cc" /><path
         style="fill:#cb0000;fill-opacity:1;stroke:#f4e800;stroke-width:1.40213;stroke-linecap:round;stroke-linejoin:round;stroke-dasharray:none;stroke-opacity:1"
         d="m 317.52232,86.830918 -0.002,-109.07659"
         id="path17"
         sodipodi:nodetypes="cc" /><path
         style="fill:#cb0000;fill-opacity:1;stroke:#f4e800;stroke-width:1.40218;stroke-linecap:round;stroke-linejoin:round;stroke-dasharray:none;stroke-opacity:1"
         d="m 327.7765,86.893873 -0.002,-109.021997"
         id="path18"
         sodipodi:nodetypes="cc" /><text
         xml:space="preserve"
         transform="matrix(0.7893684,0,0,0.6165486,-160.88296,-513.39787)"
         id="text6"
         style="font-style:normal;font-variant:normal;font-weight:normal;font-stretch:normal;font-size:28.6899px;font-family:Recursive;-inkscape-font-specification:Recursive;text-align:start;writing-mode:lr-tb;direction:ltr;white-space:pre;shape-inside:url(#rect8);display:inline;fill:#cb0000;fill-opacity:1;stroke:#000000;stroke-width:0;stroke-linecap:square;stroke-linejoin:bevel;stroke-dasharray:none;stroke-opacity:1"><tspan
           x="300.35352"
           y="973.29517"
           id="tspan4">o</tspan></text><text
         xml:space="preserve"
         transform="matrix(0.7893684,0,0,0.6165486,-160.91382,-612.77515)"
         id="text6-2"
         style="font-style:normal;font-variant:normal;font-weight:normal;font-stretch:normal;font-size:28.6899px;font-family:Recursive;-inkscape-font-specification:Recursive;text-align:start;writing-mode:lr-tb;direction:ltr;white-space:pre;shape-inside:url(#rect8-4);display:inline;fill:#cb0000;fill-opacity:1;stroke:#000000;stroke-width:0;stroke-linecap:square;stroke-linejoin:bevel;stroke-dasharray:none;stroke-opacity:1"><tspan
           x="300.35352"
           y="973.29517"
           id="tspan5">o</tspan></text><text
         xml:space="preserve"
         transform="matrix(0.7893684,0,0,0.6165486,78.755478,-513.33797)"
         id="text18"
         style="font-style:normal;font-variant:normal;font-weight:normal;font-stretch:normal;font-size:28.6899px;font-family:Recursive;-inkscape-font-specification:Recursive;text-align:start;writing-mode:lr-tb;direction:ltr;white-space:pre;shape-inside:url(#rect20);display:inline;fill:#cb0000;fill-opacity:1;stroke:#000000;stroke-width:0;stroke-linecap:square;stroke-linejoin:bevel;stroke-dasharray:none;stroke-opacity:1"><tspan
           x="300.35352"
           y="973.29517"
           id="tspan6">o</tspan></text><text
         xml:space="preserve"
         transform="matrix(0.7893684,0,0,0.6165486,78.685801,-612.76724)"
         id="text6-1"
         style="font-style:normal;font-variant:normal;font-weight:normal;font-stretch:normal;font-size:28.6899px;font-family:Recursive;-inkscape-font-specification:Recursive;text-align:start;writing-mode:lr-tb;direction:ltr;white-space:pre;shape-inside:url(#rect8-5);display:inline;fill:#cb0000;fill-opacity:1;stroke:#000000;stroke-width:0;stroke-linecap:square;stroke-linejoin:bevel;stroke-dasharray:none;stroke-opacity:1"><tspan
           x="300.35352"
           y="973.29517"
           id="tspan7">o</tspan></text><text
         xml:space="preserve"
         transform="matrix(0.7893684,0,0,0.6165486,-94.854314,-523.20589)"
         id="text20"
         style="font-style:normal;font-variant:normal;font-weight:normal;font-stretch:normal;font-size:28.6899px;font-family:Recursive;-inkscape-font-specification:Recursive;text-align:start;writing-mode:lr-tb;direction:ltr;white-space:pre;shape-inside:url(#rect21);display:inline;fill:#cb0000;fill-opacity:1;stroke:#000000;stroke-width:0;stroke-linecap:square;stroke-linejoin:bevel;stroke-dasharray:none;stroke-opacity:1"><tspan
           x="300.35352"
           y="973.29517"
           id="tspan8">o</tspan></text></g></g></svg>
